<svg xmlns="http://www.w3.org/2000/svg" width="324" height="411" fill="none">
  <ellipse cx="186" cy="397" fill="#D3AE83" rx="112" ry="14" />
  <path
    fill="#3E3028"
    d="M174.809 87.84c61.684 11.963 113.45 31.745 138.347 50.945L193.971 2.837 27.5 82c30.646-8.32 85.896-6.075 147.309 5.84Z"
  />
  <path
    fill="url(#a)"
    d="M174.809 87.84c61.684 11.963 113.45 31.745 138.347 50.945L193.971 2.837 27.5 82c30.646-8.32 85.895-6.075 147.309 5.84Z"
  />
  <path
    fill="#AC9090"
    d="M320.855 160.088c-5.062 29.685-80.911 41.565-169.413 26.533C62.939 171.589-4.703 135.338.358 105.653 5.42 75.967 81.268 64.088 169.772 79.12c88.502 15.032 156.145 51.283 151.083 80.968Z"
  />
  <path
    fill="url(#b)"
    d="M320.855 160.088c-5.062 29.685-80.911 41.565-169.413 26.533C62.939 171.589-4.703 135.338.358 105.653 5.42 75.967 81.268 64.088 169.772 79.12c88.502 15.032 156.145 51.283 151.083 80.968Z"
  />
  <path fill="#552020" d="M75 308.5 10 269l221.5 10.5 30 40.5L75 308.5Z" />
  <g fill="#F7EAE3">
    <path d="M37.702 111.625 10 269.001l221.5 10.5 13.5-171.5-207.298 3.624Z" />
    <path d="M37.702 111.625 10 269.001l221.5 10.5 13.5-171.5-207.298 3.624Z" />
    <path d="M37.702 111.625 10 269.001l221.5 10.5 13.5-171.5-207.298 3.624Z" />
    <path d="M37.702 111.625 10 269.001l221.5 10.5 13.5-171.5-207.298 3.624Z" />
  </g>
  <path
    fill="url(#c)"
    d="M37.702 111.624 10 269l221.5 10.5L245 108l-207.298 3.624Z"
  />
  <path
    fill="url(#d)"
    d="M37.702 111.624 10 269l221.5 10.5L245 108l-207.298 3.624Z"
  />
  <path
    fill="url(#e)"
    d="M37.702 111.624 10 269l221.5 10.5L245 108l-207.298 3.624Z"
  />
  <path
    fill="url(#f)"
    d="M37.702 111.624 10 269l221.5 10.5L245 108l-207.298 3.624Z"
  />
  <path
    fill="#722727"
    d="M261.5 320c1-43.5 5.5-151.5 5.5-151.5L245 108l-13.5 171.5c3.544 4.861 30 40.5 30 40.5Z"
  />
  <path
    fill="#5B443A"
    d="M144.944 145.504c3.871 0 7.008-3.126 7.008-6.982 0-3.856-3.137-6.982-7.008-6.982-3.87 0-7.007 3.126-7.007 6.982 0 3.856 3.137 6.982 7.007 6.982ZM91.124 145.504c3.87 0 7.008-3.126 7.008-6.982 0-3.856-3.137-6.982-7.008-6.982-3.87 0-7.007 3.126-7.007 6.982 0 3.856 3.137 6.982 7.007 6.982ZM108.705 158.172c3.089 0 5.593-2.495 5.593-5.572 0-3.078-2.504-5.573-5.593-5.573s-5.594 2.495-5.594 5.573c0 3.077 2.505 5.572 5.594 5.572Z"
  />
  <path
    stroke="#5B443A"
    stroke-linecap="round"
    stroke-miterlimit="10"
    stroke-width="7"
    d="M113.312 171.467c-.514 8.619 5.688 12.058 11.63 11.808 6.558-.276 11.394-5.815 10.901-14.007"
  />
  <path
    fill="#936A59"
    d="m123.841 296.669-14.978-.13c-.687 2.36-.098 11.093 3.288 23.548 2.104 7.738 18.163 58.516 20.841 64.751l-21.378-3.516c-7.641-1.693-20.505.383-24.59 10.643-5.105 12.825 7.924 10.957 22.387 12.858 14.464 1.901 38.016-1.311 40.539-4.395 2.524-3.084.994-12.135-3.57-24.498-6.248-16.926-17.57-57.472-22.539-79.261Z"
  />
  <path
    fill="url(#g)"
    d="m123.841 296.669-14.978-.13c-.687 2.36-.098 11.093 3.288 23.548 2.104 7.738 18.163 58.516 20.841 64.751l-21.378-3.516c-7.641-1.693-20.505.383-24.59 10.643-5.105 12.825 7.924 10.957 22.387 12.858 14.464 1.901 38.016-1.311 40.539-4.395 2.524-3.084.994-12.135-3.57-24.498-6.248-16.926-17.57-57.472-22.539-79.261Z"
  />
  <path
    fill="#936A59"
    d="m182.019 299.671-14.979-.13c-.686 2.36-.097 11.093 3.289 23.548 2.104 7.738 18.163 58.516 20.841 64.751l-21.378-3.516c-7.641-1.693-20.505.383-24.589 10.643-5.106 12.825 7.922 10.956 22.386 12.858 14.463 1.901 38.015-1.311 40.539-4.395 2.524-3.084.993-12.135-3.57-24.498-6.248-16.926-17.571-57.473-22.539-79.261Z"
  />
  <path
    fill="url(#h)"
    d="m182.019 299.671-14.979-.13c-.686 2.36-.097 11.093 3.289 23.548 2.104 7.738 18.163 58.516 20.841 64.751l-21.378-3.516c-7.641-1.693-20.505.383-24.589 10.643-5.106 12.825 7.922 10.956 22.386 12.858 14.463 1.901 38.015-1.311 40.539-4.395 2.524-3.084.993-12.135-3.57-24.498-6.248-16.926-17.571-57.473-22.539-79.261Z"
  />
  <defs>
    <linearGradient
      id="a"
      x1="169.276"
      x2="170.514"
      y1="3.059"
      y2="140.071"
      gradientUnits="userSpaceOnUse"
    >
      <stop stop-color="#A1562B" />
      <stop offset=".635" stop-color="#4C2B19" stop-opacity="0" />
    </linearGradient>
    <linearGradient
      id="b"
      x1="169.772"
      x2="151.511"
      y1="79.12"
      y2="186.632"
      gradientUnits="userSpaceOnUse"
    >
      <stop stop-color="#9B6565" />
      <stop offset="1" stop-color="#AC9090" stop-opacity="0" />
    </linearGradient>
    <linearGradient
      id="c"
      x1="127.19"
      x2="127.19"
      y1="107.789"
      y2="279.719"
      gradientUnits="userSpaceOnUse"
    >
      <stop stop-color="#FDD3C2" />
      <stop offset="1" stop-color="#FFEFE6" stop-opacity="0" />
    </linearGradient>
    <linearGradient
      id="d"
      x1="127.19"
      x2="127.19"
      y1="107.789"
      y2="279.719"
      gradientUnits="userSpaceOnUse"
    >
      <stop stop-color="#FDD3C2" />
      <stop offset="1" stop-color="#FFEFE6" stop-opacity="0" />
    </linearGradient>
    <linearGradient
      id="e"
      x1="127.19"
      x2="127.19"
      y1="107.789"
      y2="279.719"
      gradientUnits="userSpaceOnUse"
    >
      <stop stop-color="#FDD3C2" />
      <stop offset="1" stop-color="#FFEFE6" stop-opacity="0" />
    </linearGradient>
    <linearGradient
      id="f"
      x1="127.19"
      x2="127.19"
      y1="107.789"
      y2="279.719"
      gradientUnits="userSpaceOnUse"
    >
      <stop stop-color="#FDD3C2" />
      <stop offset="1" stop-color="#FFEFE6" stop-opacity="0" />
    </linearGradient>
    <linearGradient
      id="g"
      x1="119.402"
      x2="118.452"
      y1="296.631"
      y2="405.389"
      gradientUnits="userSpaceOnUse"
    >
      <stop stop-color="#2D160D" />
      <stop offset=".93" stop-color="#643927" stop-opacity="0" />
      <stop offset="1" stop-color="#643927" />
    </linearGradient>
    <linearGradient
      id="h"
      x1="177.579"
      x2="176.63"
      y1="299.633"
      y2="408.391"
      gradientUnits="userSpaceOnUse"
    >
      <stop stop-color="#2D160D" />
      <stop offset=".93" stop-color="#643927" stop-opacity="0" />
      <stop offset="1" stop-color="#643927" />
    </linearGradient>
  </defs>
</svg>
