<svg
  width="62"
  height="73"
  viewBox="0 0 62 73"
  fill="none"
  xmlns="http://www.w3.org/2000/svg"
>
  <g id="alarm-exist">
    <path
      id="Vector"
      d="M41.2509 66.2022C41.2514 67.9171 40.593 69.5689 39.4075 70.8264C38.222 72.0839 36.5971 72.8542 34.8585 72.9828L34.3402 72.9998H27.4296C25.6861 73.0003 24.0068 72.3526 22.7284 71.1865C21.45 70.0204 20.6669 68.4221 20.5362 66.712L20.5189 66.2022H41.2509ZM30.8849 8.42285C37.1562 8.42275 43.1825 10.8186 47.6924 15.1051C52.2024 19.3916 54.8434 25.2335 55.0584 31.3986L55.0722 32.2143V45.0074L61.3678 57.3926C61.6426 57.933 61.7801 58.5308 61.7686 59.1349C61.757 59.739 61.5968 60.3314 61.3017 60.8613C61.0065 61.3912 60.5852 61.8428 60.0737 62.1775C59.5623 62.5122 58.9761 62.7199 58.3651 62.783L57.9678 62.8034H3.80199C3.18751 62.8036 2.58214 62.6572 2.03777 62.3769C1.4934 62.0965 1.02625 61.6905 0.676354 61.1936C0.326461 60.6967 0.104256 60.1238 0.0287807 59.524C-0.0466945 58.9241 0.0268105 58.3152 0.242997 57.7494L0.401942 57.3926L6.69756 45.0074V32.2143C6.69756 25.9045 9.24586 19.853 13.7819 15.3912C18.3179 10.9294 24.47 8.42285 30.8849 8.42285Z"
      fill="#643927"
    />
    <ellipse
      id="Ellipse 6"
      cx="50.7123"
      cy="11.2308"
      rx="11.0571"
      ry="11.2308"
      fill="#FF7759"
    />
  </g>
</svg>
