<svg
  width="62"
  height="65"
  viewBox="0 0 62 65"
  fill="none"
  xmlns="http://www.w3.org/2000/svg"
>
  <g id="alarm-none">
    <path
      id="Vector"
      d="M41.2509 58.2022C41.2514 59.9171 40.593 61.5689 39.4075 62.8264C38.222 64.0839 36.5971 64.8542 34.8585 64.9828L34.3402 64.9998H27.4296C25.6861 65.0003 24.0068 64.3526 22.7284 63.1865C21.45 62.0204 20.6669 60.4221 20.5362 58.712L20.5189 58.2022H41.2509ZM30.8849 0.422852C37.1562 0.42275 43.1825 2.81863 47.6924 7.10512C52.2024 11.3916 54.8434 17.2335 55.0584 23.3986L55.0722 24.2143V37.0074L61.3678 49.3926C61.6426 49.933 61.7801 50.5308 61.7686 51.1349C61.757 51.739 61.5968 52.3314 61.3017 52.8613C61.0065 53.3912 60.5852 53.8428 60.0737 54.1775C59.5623 54.5122 58.9761 54.7199 58.3651 54.783L57.9678 54.8034H3.80199C3.18751 54.8036 2.58214 54.6572 2.03777 54.3769C1.4934 54.0965 1.02625 53.6905 0.676354 53.1936C0.326461 52.6967 0.104256 52.1238 0.0287807 51.524C-0.0466945 50.9241 0.0268105 50.3152 0.242997 49.7494L0.401942 49.3926L6.69756 37.0074V24.2143C6.69756 17.9045 9.24586 11.853 13.7819 7.39122C18.3179 2.92945 24.47 0.422852 30.8849 0.422852Z"
      fill="#643927"
    />
  </g>
</svg>
