<svg
  width="22"
  height="27"
  viewBox="0 0 22 27"
  fill="none"
  xmlns="http://www.w3.org/2000/svg"
>
  <g id="alarm-exist">
    <g id="Frame 121">
      <path
        id="Vector"
        d="M14.6921 24.0789C14.6923 24.6897 14.4578 25.2781 14.0355 25.7259C13.6133 26.1738 13.0346 26.4481 12.4154 26.4939L12.2308 26.5H9.76943C9.14846 26.5002 8.55037 26.2695 8.09505 25.8542C7.63973 25.4389 7.36082 24.8696 7.31425 24.2605L7.3081 24.0789H14.6921ZM11.0001 3.5C13.2337 3.49996 15.3801 4.35329 16.9863 5.87999C18.5926 7.40668 19.5333 9.48737 19.6098 11.6832L19.6148 11.9737V16.5301L21.857 20.9413C21.9549 21.1337 22.0039 21.3467 21.9998 21.5618C21.9957 21.777 21.9386 21.988 21.8335 22.1767C21.7283 22.3654 21.5783 22.5263 21.3961 22.6455C21.214 22.7647 21.0052 22.8387 20.7876 22.8612L20.6461 22.8684H1.35413C1.13528 22.8685 0.919667 22.8164 0.725781 22.7165C0.531894 22.6166 0.365513 22.472 0.240893 22.2951C0.116274 22.1181 0.0371323 21.914 0.0102507 21.7004C-0.0166309 21.4868 0.00954896 21.2699 0.0865468 21.0684L0.143157 20.9413L2.38543 16.5301V11.9737C2.38543 9.72632 3.29305 7.57101 4.90861 5.98188C6.52417 4.39276 8.71534 3.5 11.0001 3.5Z"
        fill="#643927"
      />
      <ellipse
        id="Ellipse 6"
        cx="18.0619"
        cy="4.5"
        rx="3.93813"
        ry="4"
        fill="#FF7759"
      />
    </g>
  </g>
</svg>
