<svg
  width="20"
  height="20"
  viewBox="0 0 20 20"
  fill="none"
  xmlns="http://www.w3.org/2000/svg"
>
  <path
    d="M14.8724 10.5583C14.8484 9.09069 15.4776 7.94868 16.7577 7.13112C16.0357 6.07303 14.9707 5.47831 13.5628 5.34556C13.0617 5.29813 12.4214 5.41741 11.6427 5.70649C10.8046 6.01943 10.3328 6.17519 10.2284 6.17519C10.0072 6.17519 9.58248 6.04356 8.95303 5.77862C8.32498 5.51424 7.78911 5.38177 7.3471 5.38177C6.60235 5.39383 5.90939 5.60124 5.26936 6.00399C4.62933 6.40702 4.11741 6.95739 3.73362 7.65399C3.24398 8.52011 3 9.55434 3 10.7564C3 11.8384 3.17992 12.9203 3.5406 14.0031C3.87789 15.0373 4.30931 15.945 4.83237 16.7255C5.29749 17.4353 5.70635 17.952 6.0545 18.2773C6.55555 18.7822 7.06691 19.0227 7.59136 18.9983C7.92865 18.9859 8.37065 18.8599 8.91766 18.6188C9.42958 18.3915 9.94205 18.2773 10.4542 18.2773C10.9313 18.2773 11.4254 18.3906 11.9382 18.6188C12.508 18.8599 12.974 18.9797 13.3347 18.9797C13.8703 18.9559 14.3702 18.7215 14.8364 18.2773C14.9985 18.1324 15.1765 17.9343 15.3684 17.682C15.5606 17.4291 15.7728 17.1285 16.0059 16.7802C16.1683 16.5279 16.3285 16.2573 16.4861 15.9685C16.6435 15.68 16.7858 15.3738 16.9139 15.0485C16.9716 14.9164 17.0239 14.7814 17.0707 14.643C17.1169 14.5049 17.1637 14.364 17.2102 14.2195C16.7797 14.0278 16.3895 13.7558 16.0407 13.4072C15.2734 12.6388 14.8835 11.6888 14.8718 10.5585L14.8724 10.5583Z"
    fill="black"
  />
  <path
    d="M12.672 3.88603C13.2892 3.10439 13.5978 2.26269 13.5978 1.36065V1.18075C13.5978 1.12012 13.592 1.06034 13.5806 1C13.1497 1.02414 12.6929 1.1625 12.2097 1.41453C11.7267 1.66741 11.3285 1.98652 11.0135 2.37074C10.3854 3.12881 10.0707 3.93991 10.0707 4.80575V4.97667C10.0707 5.0314 10.0765 5.0881 10.0879 5.14872C11.0544 5.2447 11.9156 4.82371 12.672 3.88631V3.88603Z"
    fill="black"
  />
</svg>
