<svg
  width="41"
  height="41"
  viewBox="0 0 41 41"
  fill="none"
  xmlns="http://www.w3.org/2000/svg"
>
  <g id="Avatar" clip-path="url(#clip0_1308_447)">
    <circle id="Ellipse" cx="20.5" cy="20.5" r="20.5" fill="#643927" />
    <g id="icon/social/person_24px">
      <path
        id="icon/social/person_24px_2"
        fill-rule="evenodd"
        clip-rule="evenodd"
        d="M24.4048 16.5953C24.4048 18.7527 22.6575 20.5001 20.5001 20.5001C18.3427 20.5001 16.5953 18.7527 16.5953 16.5953C16.5953 14.4379 18.3427 12.6906 20.5001 12.6906C22.6575 12.6906 24.4048 14.4379 24.4048 16.5953ZM12.6906 26.3572C12.6906 23.7606 17.8936 22.4525 20.5001 22.4525C23.1065 22.4525 28.3096 23.7606 28.3096 26.3572V27.3334C28.3096 27.8703 27.8703 28.3096 27.3334 28.3096H13.6667C13.1298 28.3096 12.6906 27.8703 12.6906 27.3334V26.3572Z"
        fill="#DDCFC4"
      />
    </g>
  </g>
  <defs>
    <clipPath id="clip0_1308_447">
      <rect width="41" height="41" fill="white" />
    </clipPath>
  </defs>
</svg>
