<svg width="44" height="44" viewBox="0 0 44 44" fill="none" xmlns="http://www.w3.org/2000/svg">
<circle cx="22" cy="22" r="21.25" stroke="#966E5D" stroke-width="1.5"/>
<path d="M25.4528 12.2371L15.2787 21.3969C15.1 21.5578 15 21.7736 15 21.9983C15 22.223 15.1 22.4387 15.2787 22.5996L25.4528 31.7629C25.536 31.838 25.6355 31.8976 25.7455 31.9383C25.8554 31.979 25.9735 32 26.0928 32C26.2121 32 26.3303 31.979 26.4402 31.9383C26.5501 31.8976 26.6496 31.838 26.7329 31.7629C26.9041 31.6091 27 31.4025 27 31.1874C27 30.9723 26.9041 30.7658 26.7329 30.6119L17.1655 21.9983L26.7329 13.3864C26.9035 13.2326 26.999 13.0264 26.999 12.8117C26.999 12.5971 26.9035 12.3909 26.7329 12.2371C26.6496 12.162 26.5501 12.1024 26.4402 12.0617C26.3303 12.021 26.2121 12 26.0928 12C25.9735 12 25.8554 12.021 25.7455 12.0617C25.6355 12.1024 25.536 12.162 25.4528 12.2371Z" fill="#966E5D"/>
</svg>
