<svg width="78" height="70" viewBox="0 0 78 70" fill="none" xmlns="http://www.w3.org/2000/svg">
<path d="M70.2 11.6667H60.1146L49.5573 1.13945C49.1957 0.777616 48.766 0.490664 48.2928 0.29511C47.8196 0.0995561 47.3122 -0.000736746 46.8 4.07429e-06H31.2C30.6878 -0.000736746 30.1804 0.0995561 29.7072 0.29511C29.234 0.490664 28.8043 0.777616 28.4427 1.13945L17.8854 11.6667H7.8C3.4983 11.6667 0 15.155 0 19.4444V62.2222C0 66.5117 3.4983 70 7.8 70H70.2C74.5017 70 78 66.5117 78 62.2222V19.4444C78 15.155 74.5017 11.6667 70.2 11.6667ZM39 58.3333C28.431 58.3333 19.5 49.4278 19.5 38.8889C19.5 28.35 28.431 19.4444 39 19.4444C49.569 19.4444 58.5 28.35 58.5 38.8889C58.5 49.4278 49.569 58.3333 39 58.3333Z" fill="#FFFAF5"/>
</svg>
