<svg width="64" height="64" viewBox="0 0 64 64" fill="none" xmlns="http://www.w3.org/2000/svg">
  <g id="camera-off">
    <path id="Vector" d="M2.66797 2.66699L61.3346 61.3337" stroke="#643927" stroke-width="4"
      stroke-linecap="round" stroke-linejoin="round" />
    <path id="Vector_2"
      d="M56.0013 56H8.0013C6.58681 56 5.23026 55.4381 4.23007 54.4379C3.22987 53.4377 2.66797 52.0812 2.66797 50.6667V21.3333C2.66797 19.9188 3.22987 18.5623 4.23007 17.5621C5.23026 16.5619 6.58681 16 8.0013 16H16.0013M24.0013 8H40.0013L45.3346 16H56.0013C57.4158 16 58.7723 16.5619 59.7725 17.5621C60.7727 18.5623 61.3346 19.9188 61.3346 21.3333V46.24M40.748 40.7467C39.8629 42.0401 38.7037 43.1227 37.3527 43.9173C36.0018 44.7118 34.4924 45.199 32.9318 45.344C31.3713 45.489 29.7979 45.2883 28.3237 44.7563C26.8495 44.2242 25.5107 43.3738 24.4024 42.2655C23.2942 41.1573 22.4438 39.8185 21.9117 38.3443C21.3796 36.8701 21.179 35.2967 21.324 33.7361C21.469 32.1756 21.9561 30.6662 22.7507 29.3152C23.5453 27.9643 24.6278 26.8051 25.9213 25.92"
      stroke="#643927" stroke-width="4" stroke-linecap="round" stroke-linejoin="round" />
  </g>
</svg>
  