<svg width="12" height="6" viewBox="0 0 12 6" fill="none" xmlns="http://www.w3.org/2000/svg">
<path id="Vector" d="M6 4.97458L0.766818 0.12457C0.724645 0.084639 0.674576 0.0530705 0.619509 0.031691C0.564441 0.0103111 0.505469 -0.000455402 0.446004 1.52393e-05C0.386539 0.000485403 0.327763 0.0121837 0.273076 0.0344314C0.21839 0.0566797 0.168878 0.089036 0.127408 0.129629C0.0859372 0.170222 0.0533307 0.218244 0.0314752 0.270918C0.00961978 0.323592 -0.00105073 0.379872 8.12506e-05 0.4365C0.00121323 0.493127 0.0141252 0.548978 0.03807 0.600822C0.0620147 0.652665 0.0965168 0.699471 0.13958 0.73853L5.68638 5.87867C5.77034 5.95647 5.88286 6 6 6C6.11714 6 6.22966 5.95647 6.31362 5.87867L11.8604 0.73853C11.9035 0.69947 11.938 0.652665 11.9619 0.600821C11.9859 0.548978 11.9988 0.493126 11.9999 0.436499C12.0011 0.379871 11.9904 0.323592 11.9685 0.270917C11.9467 0.218244 11.9141 0.170221 11.8726 0.129628C11.8311 0.0890355 11.7816 0.0566792 11.7269 0.0344309C11.6722 0.0121832 11.6135 0.000484913 11.554 1.47537e-05C11.4945 -0.000455882 11.4356 0.0103106 11.3805 0.0316906C11.3254 0.0530701 11.2754 0.0846386 11.2332 0.124569L6 4.97458Z" fill="#643927"/>
</svg>
