<svg xmlns="http://www.w3.org/2000/svg" viewbox="0 0 11 12" width="11" height="12" fill="none">
  <path
    fill="#643927"
    d="M10.278 10.111a.558.558 0 0 1 .153.391.582.582 0 0 1-.152.391.522.522 0 0 1-.37.162.496.496 0 0 1-.369-.162L5.216 6.31.89 10.893a.507.507 0 0 1-.37.162.507.507 0 0 1-.368-.162.57.57 0 0 1-.153-.39.57.57 0 0 1 .153-.392l4.325-4.583L.153.944A.57.57 0 0 1 0 .553.57.57 0 0 1 .153.162.507.507 0 0 1 .522 0C.66 0 .793.058.89.162l4.325 4.584L9.54.162A.507.507 0 0 1 9.91 0c.138 0 .27.058.368.162a.57.57 0 0 1 .153.391.57.57 0 0 1-.152.391L5.952 5.528l4.325 4.583Z"
  />
</svg>
