<svg xmlns="http://www.w3.org/2000/svg" viewbox="0 0 100 72" width="100" height="72" fill="none">
  <rect width="31" height="29" x="57" y="41" fill="#E1BE96" rx="14.5" />
  <rect width="31" height="29" x="57" y="41" fill="url(#a)" rx="14.5" />
  <rect
    width="15.252"
    height="9.805"
    fill="#E1BE96"
    rx="4.5"
    transform="matrix(.75488 -.65587 .75488 .65587 50 47.003)"
  />
  <rect
    width="15.252"
    height="9.805"
    fill="url(#b)"
    rx="4.5"
    transform="matrix(.75488 -.65587 .75488 .65587 50 47.003)"
  />
  <rect
    width="15.252"
    height="9.805"
    fill="#E1BE96"
    rx="4.5"
    transform="matrix(.75488 .65587 -.75488 .65587 84.846 38)"
  />
  <rect
    width="15.252"
    height="9.805"
    fill="url(#c)"
    rx="4.5"
    transform="matrix(.75488 .65587 -.75488 .65587 84.846 38)"
  />
  <circle cx="65.5" cy="55.5" r="1.5" fill="#643927" />
  <circle cx="76.5" cy="55.5" r="1.5" fill="#643927" />
  <ellipse cx="71" cy="65.5" fill="#FDF7F1" rx="7" ry="5.5" />
  <ellipse cx="71" cy="65.5" fill="url(#d)" rx="7" ry="5.5" />
  <circle cx="70" cy="64" r="2" fill="#643927" />
  <path
    fill="#D3D3D3"
    d="m44.142 43.95-2.608 11.18-8.573-8.573 11.181-2.607Z"
  />
  <path
    fill="url(#e)"
    d="m44.142 43.95-2.608 11.18-8.573-8.573 11.181-2.607Z"
  />
  <rect width="32" height="24" x="11" y="46" fill="#D3D3D3" rx="12" />
  <rect width="32" height="24" x="11" y="46" fill="url(#f)" rx="12" />
  <circle cx="23.5" cy="58.5" r="1.5" fill="#643927" />
  <circle cx="34.5" cy="58.5" r="1.5" fill="#643927" />
  <g fill="snow">
    <circle cx="27.5" cy="63.5" r="2.5" />
    <circle cx="31.5" cy="63.5" r="2.5" />
  </g>
  <circle cx="27.5" cy="63.5" r="2.5" fill="url(#g)" />
  <circle cx="31.5" cy="63.5" r="2.5" fill="url(#h)" />
  <circle cx="29.5" cy="61.5" r="1.5" fill="#643927" />
  <path fill="#D3D3D3" d="m8.95 44.95 11.18 2.607-8.573 8.574L8.95 44.95Z" />
  <path fill="url(#i)" d="m8.95 44.95 11.18 2.607-8.573 8.574L8.95 44.95Z" />
  <path
    fill="#A5B8FB"
    d="M48.5 4.857a9.643 9.643 0 1 0 0 19.286 9.643 9.643 0 0 0 0-19.286ZM62 14.5a13.5 13.5 0 1 1-27 0 13.5 13.5 0 0 1 27 0Z"
  />
  <path
    fill="url(#j)"
    d="M48.5 4.857a9.643 9.643 0 1 0 0 19.286 9.643 9.643 0 0 0 0-19.286ZM62 14.5a13.5 13.5 0 1 1-27 0 13.5 13.5 0 0 1 27 0Z"
  />
  <defs>
    <linearGradient
      id="a"
      x1="72.5"
      x2="72.5"
      y1="41"
      y2="70"
      gradientUnits="userSpaceOnUse"
    >
      <stop stop-color="#FFDEB7" />
      <stop offset=".71" stop-color="#E1BE96" stop-opacity="0" />
      <stop offset="1" stop-color="#E0A174" />
    </linearGradient>
    <linearGradient
      id="b"
      x1="13.768"
      x2=".257"
      y1=".804"
      y2="1.193"
      gradientUnits="userSpaceOnUse"
    >
      <stop stop-color="#FFE1BF" />
      <stop offset=".715" stop-color="#E1BE96" stop-opacity="0" />
      <stop offset="1" stop-color="#E0A174" stop-opacity=".8" />
    </linearGradient>
    <linearGradient
      id="c"
      x1=".402"
      x2="14.524"
      y1="4.172"
      y2="1.218"
      gradientUnits="userSpaceOnUse"
    >
      <stop stop-color="#FFE1BF" />
      <stop offset=".605" stop-color="#E1BE96" stop-opacity="0" />
      <stop offset="1" stop-color="#E0A174" />
      <stop offset="1" stop-color="#E0A174" />
    </linearGradient>
    <linearGradient
      id="d"
      x1="71"
      x2="71"
      y1="60"
      y2="71"
      gradientUnits="userSpaceOnUse"
    >
      <stop stop-color="#FDF7F1" stop-opacity="0" />
      <stop offset=".95" stop-color="#EACFB7" />
    </linearGradient>
    <linearGradient
      id="e"
      x1="42"
      x2="40"
      y1="43.5"
      y2="53"
      gradientUnits="userSpaceOnUse"
    >
      <stop stop-color="#FFF3E1" />
      <stop offset=".565" stop-color="#D3D3D3" stop-opacity="0" />
      <stop offset="1" stop-color="#B6B6B6" />
    </linearGradient>
    <linearGradient
      id="f"
      x1="27"
      x2="27"
      y1="45"
      y2="70"
      gradientUnits="userSpaceOnUse"
    >
      <stop stop-color="#F3E7D6" />
      <stop offset=".265" stop-color="#D3D3D3" />
      <stop offset="1" stop-color="#B4B4B4" />
    </linearGradient>
    <linearGradient
      id="g"
      x1="27.5"
      x2="27.5"
      y1="61"
      y2="66"
      gradientUnits="userSpaceOnUse"
    >
      <stop offset=".375" stop-color="snow" stop-opacity="0" />
      <stop offset="1" stop-color="#DCD2D2" />
    </linearGradient>
    <linearGradient
      id="h"
      x1="31.5"
      x2="31.5"
      y1="61"
      y2="66"
      gradientUnits="userSpaceOnUse"
    >
      <stop offset=".375" stop-color="snow" stop-opacity="0" />
      <stop offset="1" stop-color="#DCD2D2" />
    </linearGradient>
    <linearGradient
      id="i"
      x1="12"
      x2="17"
      y1="42.5"
      y2="55"
      gradientUnits="userSpaceOnUse"
    >
      <stop stop-color="#FEF3E1" />
      <stop offset=".52" stop-color="#D3D3D3" stop-opacity="0" />
      <stop offset="1" stop-color="#C2C2C2" />
    </linearGradient>
    <linearGradient
      id="j"
      x1="48.5"
      x2="48.5"
      y1="1"
      y2="34"
      gradientUnits="userSpaceOnUse"
    >
      <stop stop-color="#DAE1F9" />
      <stop offset=".53" stop-color="#6788FE" />
      <stop offset="1" stop-color="#A5B8FB" stop-opacity="0" />
    </linearGradient>
  </defs>
</svg>
