<svg
  width="76"
  height="68"
  viewBox="0 0 76 68"
  fill="none"
  xmlns="http://www.w3.org/2000/svg"
>
  <g id="dont-mind-sex" clip-path="url(#clip0_1059_12106)">
    <g id="house">
      <g id="Group 715">
        <rect
          id="Rectangle 396"
          x="15"
          y="26"
          width="47"
          height="28"
          fill="#CCCCCC"
        />
        <rect
          id="Rectangle 396_2"
          x="15"
          y="26"
          width="47"
          height="28"
          fill="url(#paint0_linear_1059_12106)"
        />
        <path
          id="Polygon 14"
          d="M38.5 4L71.842 28H5.15802L38.5 4Z"
          fill="#CCCCCC"
        />
        <path
          id="Polygon 14_2"
          d="M38.5 4L71.842 28H5.15802L38.5 4Z"
          fill="url(#paint1_linear_1059_12106)"
        />
      </g>
      <path
        id="Vector"
        d="M41 36C42.1046 36 43 35.1046 43 34C43 32.8954 42.1046 32 41 32C39.8954 32 39 32.8954 39 34C39 35.1046 39.8954 36 41 36Z"
        fill="#643927"
      />
      <path
        id="Vector_2"
        d="M26 36C27.1046 36 28 35.1046 28 34C28 32.8954 27.1046 32 26 32C24.8954 32 24 32.8954 24 34C24 35.1046 24.8954 36 26 36Z"
        fill="#643927"
      />
      <path
        id="Vector 13"
        d="M31 40C31 40 31 43 33.9986 43C37.2046 43 36.9973 40 36.9973 40"
        stroke="#643927"
        stroke-width="2"
        stroke-linecap="round"
      />
    </g>
  </g>
  <defs>
    <linearGradient
      id="paint0_linear_1059_12106"
      x1="38.5"
      y1="26"
      x2="38.5"
      y2="57"
      gradientUnits="userSpaceOnUse"
    >
      <stop stop-color="#F4F4F4" />
      <stop offset="0.43" stop-color="#D9D9D9" stop-opacity="0" />
      <stop offset="1" stop-color="#B2B2B2" stop-opacity="0.5" />
    </linearGradient>
    <linearGradient
      id="paint1_linear_1059_12106"
      x1="38.5"
      y1="4"
      x2="38.5"
      y2="31"
      gradientUnits="userSpaceOnUse"
    >
      <stop stop-color="#F4F4F4" />
      <stop offset="0.42" stop-color="#D9D9D9" stop-opacity="0" />
      <stop offset="1" stop-color="#B2B2B2" stop-opacity="0.5" />
    </linearGradient>
    <clipPath id="clip0_1059_12106">
      <rect width="76" height="68" fill="white" />
    </clipPath>
  </defs>
</svg>
