<svg width="24" height="22" viewBox="0 0 24 22" fill="none" xmlns="http://www.w3.org/2000/svg">
<path fill-rule="evenodd" clip-rule="evenodd" d="M20.1325 2.89696C19.5699 2.38141 18.807 2.0918 18.0115 2.0918C17.216 2.0918 16.4531 2.38141 15.8905 2.89696L15.1835 3.54596L20.1335 8.08346L20.8395 7.43538C21.1181 7.18001 21.3391 6.87683 21.4899 6.54316C21.6407 6.20948 21.7183 5.85184 21.7183 5.49067C21.7183 5.12949 21.6407 4.77186 21.4899 4.43818C21.3391 4.10451 21.1181 3.80133 20.8395 3.54596L20.1325 2.89696ZM18.7185 9.37963L13.7685 4.84213L4.67849 13.1755C4.47957 13.3579 4.34062 13.5879 4.27749 13.8392L3.24849 17.923C3.21015 18.0746 3.21455 18.2326 3.26127 18.3822C3.30799 18.5319 3.3955 18.6681 3.51555 18.7782C3.6356 18.8882 3.78424 18.9684 3.94745 19.0112C4.11067 19.0541 4.2831 19.0581 4.44849 19.023L8.90449 18.0806C9.1783 18.0226 9.42881 17.8952 9.62749 17.713L18.7185 9.37963Z" fill="#643927"/>
</svg>
