<svg
  width="18"
  height="18"
  viewBox="0 0 18 18"
  fill="none"
  xmlns="http://www.w3.org/2000/svg"
>
  <g id="Group 9264">
    <g id="Mask group">
      <mask
        id="mask0_4036_21781"
        style="mask-type: luminance"
        maskUnits="userSpaceOnUse"
        x="0"
        y="0"
        width="18"
        height="18"
      >
        <g id="Group">
          <path id="Vector" d="M0.5 0.5H17.5V17.5H0.5V0.5Z" fill="white" />
          <path
            id="Vector_2"
            d="M11.0852 3.91406L3.89118 11.1081C3.69618 11.3031 3.59918 11.4001 3.53118 11.5181C3.46518 11.6371 3.43118 11.7701 3.36518 12.0381L2.70118 14.6921C2.61118 15.0521 2.56617 15.2331 2.66617 15.3331C2.76617 15.4331 2.94618 15.3881 3.30718 15.2981L5.96218 14.6341C6.22918 14.5681 6.36217 14.5341 6.48018 14.4671C6.59917 14.4001 6.69617 14.3031 6.89017 14.1081L14.0852 6.91406C14.7522 6.24806 15.0852 5.91406 15.0852 5.50006C15.0852 5.08606 14.7522 4.75206 14.0852 4.08606L13.9132 3.91406C13.2462 3.24806 12.9132 2.91406 12.4992 2.91406C12.0852 2.91406 11.7512 3.24806 11.0852 3.91406Z"
            fill="black"
          />
        </g>
      </mask>
      <g mask="url(#mask0_4036_21781)">
        <path
          id="Vector_3"
          d="M3.30733 15.2981L2.82233 13.3581L2.73533 13.3791L2.65033 13.4091L3.30733 15.2981ZM3.30733 15.2981L3.79333 17.2381L3.88033 17.2161L3.96433 17.1861L3.30733 15.2981ZM5.30533 12.5231L12.4993 5.32806L9.67133 2.50006L2.47633 9.69406L5.30533 12.5231ZM12.4993 5.32806L12.6713 5.50006L15.4993 2.67206L15.3273 2.50006L12.4993 5.32806ZM12.6713 5.50006L5.47733 12.6941L8.30533 15.5231L15.4993 8.32806L12.6713 5.50006ZM1.42433 11.5521L0.761328 14.2061L4.64133 15.1761L5.30533 12.5231L1.42433 11.5521ZM3.79333 17.2381L6.44733 16.5751L5.47733 12.6941L2.82233 13.3581L3.79333 17.2381ZM0.761328 14.2061C0.732328 14.3221 0.650328 14.6301 0.621328 14.9161C0.591328 15.2261 0.564328 16.0601 1.25133 16.7471L4.08033 13.9191C4.34633 14.1851 4.49833 14.5001 4.56533 14.7931C4.62533 15.0481 4.60933 15.2431 4.60333 15.3051C4.59633 15.3721 4.58733 15.4041 4.59633 15.3631C4.60433 15.3251 4.61633 15.2741 4.64133 15.1761L0.761328 14.2061ZM2.82233 13.3581C2.7605 13.3738 2.6985 13.3888 2.63633 13.4031C2.59533 13.4131 2.62633 13.4031 2.69433 13.3961C2.75633 13.3901 2.95133 13.3751 3.20633 13.4341C3.49933 13.5011 3.81433 13.6541 4.08033 13.9191L1.25133 16.7471C1.93833 17.4351 2.77233 17.4071 3.08333 17.3771C3.36933 17.3491 3.67733 17.2671 3.79333 17.2381L2.82233 13.3581ZM5.47733 12.6941L5.41133 12.7591C5.38224 12.7883 5.35291 12.8173 5.32333 12.8461L5.33233 12.8381C5.36186 12.8135 5.39292 12.7907 5.42533 12.7701C5.44778 12.7543 5.47116 12.74 5.49533 12.7271L7.46533 16.2071C7.87533 15.9761 8.18533 15.6421 8.30533 15.5231L5.47733 12.6941ZM6.44633 16.5741C6.61133 16.5341 7.05633 16.4391 7.46633 16.2081L5.49533 12.7271C5.55304 12.6947 5.61323 12.6669 5.67533 12.6441L5.68533 12.6401C5.66819 12.6454 5.65084 12.6501 5.63333 12.6541L5.56633 12.6721L5.47733 12.6941L6.44633 16.5741ZM12.6723 5.50006C12.8443 5.67206 12.9703 5.79806 13.0743 5.90806C13.1793 6.01806 13.2263 6.07506 13.2463 6.10106C13.2643 6.12506 13.2233 6.07606 13.1773 5.96806C13.1164 5.81956 13.0852 5.66057 13.0853 5.50006H17.0853C17.0853 4.68006 16.7273 4.07006 16.4253 3.67406C16.1583 3.32406 15.7923 2.96406 15.4993 2.67206L12.6723 5.50006ZM15.4993 8.32806C15.7923 8.03506 16.1583 7.67606 16.4253 7.32606C16.7273 6.92906 17.0853 6.32006 17.0853 5.50006H13.0853C13.0853 5.31906 13.1253 5.15706 13.1763 5.03206C13.2223 4.92406 13.2633 4.87506 13.2453 4.89906C13.1912 4.96619 13.1338 5.0306 13.0733 5.09206C12.9693 5.20206 12.8433 5.32806 12.6713 5.50006L15.4993 8.32806ZM12.4993 5.32806C12.6713 5.15706 12.7973 5.03006 12.9073 4.92606C13.0173 4.82106 13.0743 4.77406 13.1003 4.75406C13.1243 4.73606 13.0753 4.77706 12.9673 4.82306C12.8187 4.8836 12.6598 4.91452 12.4993 4.91406V0.914062C11.6793 0.914062 11.0693 1.27206 10.6733 1.57406C10.3233 1.84106 9.96333 2.20706 9.67133 2.50006L12.4993 5.32806ZM15.3273 2.50006C15.0343 2.20706 14.6753 1.84106 14.3253 1.57406C13.9283 1.27206 13.3193 0.914062 12.4993 0.914062V4.91406C12.3183 4.91406 12.1563 4.87406 12.0313 4.82306C11.9233 4.77706 11.8743 4.73606 11.8983 4.75406C11.9243 4.77406 11.9813 4.82106 12.0913 4.92606C12.2013 5.03006 12.3273 5.15606 12.4993 5.32806L15.3273 2.50006ZM2.47633 9.69406C2.35633 9.81406 2.02333 10.1241 1.79133 10.5341L5.27233 12.5041C5.23969 12.5612 5.20257 12.6157 5.16133 12.6671C5.18697 12.6397 5.21331 12.614 5.24033 12.5881L5.30533 12.5221L2.47633 9.69406ZM5.30533 12.5231C5.32185 12.4564 5.33852 12.3897 5.35533 12.3231L5.35933 12.3131C5.35809 12.3171 5.35676 12.3211 5.35533 12.3251C5.34264 12.3613 5.32761 12.3967 5.31033 12.4311C5.29849 12.4558 5.28582 12.4802 5.27233 12.5041L1.79233 10.5341C1.56033 10.9421 1.46533 11.3881 1.42433 11.5521L5.30533 12.5231Z"
          fill="#643927"
        />
      </g>
    </g>
    <path id="Vector_4" d="M10 4L13 2L16 5L14 8L10 4Z" fill="#643927" />
  </g>
</svg>
