<svg xmlns="http://www.w3.org/2000/svg" width="76" height="68" fill="none">
  <g clip-path="url(#a)">
    <path fill="#FFC2C6" d="M12 27h47v28H12z" />
    <path fill="url(#b)" d="M12 27h47v28H12z" />
    <path fill="#FFC2C6" d="m35.5 5 33.342 24H2.158L35.5 5Z" />
    <path fill="url(#c)" d="m35.5 5 33.342 24H2.158L35.5 5Z" />
    <path
      fill="#643927"
      d="M38 37a2 2 0 1 0 0-4 2 2 0 0 0 0 4ZM23 37a2 2 0 1 0 0-4 2 2 0 0 0 0 4Z"
    />
    <path
      stroke="#643927"
      stroke-linecap="round"
      stroke-width="2"
      d="M28 41s0 3 2.999 3c3.206 0 2.998-3 2.998-3"
    />
    <path
      stroke="#643927"
      stroke-linecap="round"
      stroke-width="1.3"
      d="m20.847 33.643.867.353M35.847 33.643l.867.353"
    />
    <path
      fill="#FF90A4"
      d="M73.555 45.617c0-6.37-5.184-11.554-11.555-11.554-6.371 0-11.555 5.183-11.555 11.554 0 5.877 4.41 10.743 10.094 11.463v2.084h-2.39a1.46 1.46 0 0 0 0 2.922h2.39v2.39a1.46 1.46 0 0 0 2.922 0v-2.39h2.39a1.46 1.46 0 0 0 0-2.922h-2.39V57.08c5.684-.72 10.094-5.587 10.094-11.463Zm-20.188 0c0-4.76 3.873-8.633 8.633-8.633 4.76 0 8.633 3.873 8.633 8.633 0 4.76-3.873 8.633-8.633 8.633-4.76 0-8.633-3.873-8.633-8.633Z"
    />
    <path
      fill="#FF90A4"
      d="M73.555 45.617c0-6.37-5.184-11.554-11.555-11.554-6.371 0-11.555 5.183-11.555 11.554 0 5.877 4.41 10.743 10.094 11.463v2.084h-2.39a1.46 1.46 0 0 0 0 2.922h2.39v2.39a1.46 1.46 0 0 0 2.922 0v-2.39h2.39a1.46 1.46 0 0 0 0-2.922h-2.39V57.08c5.684-.72 10.094-5.587 10.094-11.463Zm-20.188 0c0-4.76 3.873-8.633 8.633-8.633 4.76 0 8.633 3.873 8.633 8.633 0 4.76-3.873 8.633-8.633 8.633-4.76 0-8.633-3.873-8.633-8.633Z"
    />
    <path
      fill="#FF90A4"
      d="M73.555 45.617c0-6.37-5.184-11.554-11.555-11.554-6.371 0-11.555 5.183-11.555 11.554 0 5.877 4.41 10.743 10.094 11.463v2.084h-2.39a1.46 1.46 0 0 0 0 2.922h2.39v2.39a1.46 1.46 0 0 0 2.922 0v-2.39h2.39a1.46 1.46 0 0 0 0-2.922h-2.39V57.08c5.684-.72 10.094-5.587 10.094-11.463Zm-20.188 0c0-4.76 3.873-8.633 8.633-8.633 4.76 0 8.633 3.873 8.633 8.633 0 4.76-3.873 8.633-8.633 8.633-4.76 0-8.633-3.873-8.633-8.633Z"
    />
    <path
      fill="url(#d)"
      d="M73.555 45.617c0-6.37-5.184-11.554-11.555-11.554-6.371 0-11.555 5.183-11.555 11.554 0 5.877 4.41 10.743 10.094 11.463v2.084h-2.39a1.46 1.46 0 0 0 0 2.922h2.39v2.39a1.46 1.46 0 0 0 2.922 0v-2.39h2.39a1.46 1.46 0 0 0 0-2.922h-2.39V57.08c5.684-.72 10.094-5.587 10.094-11.463Zm-20.188 0c0-4.76 3.873-8.633 8.633-8.633 4.76 0 8.633 3.873 8.633 8.633 0 4.76-3.873 8.633-8.633 8.633-4.76 0-8.633-3.873-8.633-8.633Z"
    />
  </g>
  <defs>
    <linearGradient
      id="b"
      x1="35.5"
      x2="35.5"
      y1="27"
      y2="58"
      gradientUnits="userSpaceOnUse"
    >
      <stop stop-color="#FFEBEB" />
      <stop offset=".72" stop-color="#D9D9D9" stop-opacity="0" />
      <stop offset="1" stop-color="#FF416F" stop-opacity=".5" />
    </linearGradient>
    <linearGradient
      id="c"
      x1="35.5"
      x2="35.5"
      y1="5"
      y2="32"
      gradientUnits="userSpaceOnUse"
    >
      <stop stop-color="#FFEBEB" />
      <stop offset=".52" stop-color="#D9D9D9" stop-opacity="0" />
      <stop offset="1" stop-color="#FF416F" stop-opacity=".5" />
    </linearGradient>
    <linearGradient
      id="d"
      x1="62"
      x2="62"
      y1="34.063"
      y2="65.938"
      gradientUnits="userSpaceOnUse"
    >
      <stop stop-color="#FFC5CF" />
      <stop offset=".53" stop-color="#FF90A4" stop-opacity="0" />
      <stop offset="1" stop-color="#FF4667" />
    </linearGradient>
    <clipPath id="a"><path fill="#fff" d="M0 0h76v68H0z" /></clipPath>
  </defs>
</svg>
