<svg
  width="43"
  height="37"
  viewBox="0 0 43 37"
  fill="none"
  xmlns="http://www.w3.org/2000/svg"
>
  <path
    id="Vector"
    d="M21.5 3.98851C23.739 1.46702 27.0437 0 30.7672 0C34.0104 0.00391654 37.1195 1.29155 39.4128 3.58047C41.706 5.86938 42.9961 8.9727 43 12.2097C43 25.5923 23.3887 36.285 22.5546 36.7346C22.2305 36.9088 21.8681 37 21.5 37C21.1319 37 20.7695 36.9088 20.4454 36.7346C19.6113 36.285 0 25.5923 0 12.2097C0.00392393 8.9727 1.29399 5.86938 3.58723 3.58047C5.88046 1.29155 8.98963 0.00391654 12.2328 0C15.9563 0 19.261 1.46702 21.5 3.98851Z"
    fill="#FF7759"
  />
</svg>

