<svg width="14" height="11" viewBox="0 0 14 11" fill="none" xmlns="http://www.w3.org/2000/svg">
<path d="M13 8.28645H5.79074M5.79074 8.28645C5.79074 8.7015 5.62514 9.09956 5.33165 9.39305C5.03817 9.68654 4.64011 9.85142 4.22505 9.85142C3.81 9.85142 3.41194 9.68654 3.11845 9.39305C2.82497 9.09956 2.66009 8.7015 2.66009 8.28645M5.79074 8.28645C5.79074 7.87139 5.62514 7.47334 5.33165 7.17985C5.03817 6.88636 4.64011 6.72148 4.22505 6.72148C3.81 6.72148 3.41194 6.88636 3.11845 7.17985C2.82497 7.47334 2.66009 7.87139 2.66009 8.28645M2.66009 8.28645H1M13 2.71341H10.771M10.771 2.71341C10.771 2.91892 10.7298 3.12242 10.6512 3.31229C10.5725 3.50216 10.4572 3.67468 10.3119 3.82C10.1666 3.96532 9.99407 4.0806 9.8042 4.15925C9.61433 4.23789 9.41083 4.27837 9.20531 4.27837C8.79026 4.27837 8.3922 4.11349 8.09871 3.82C7.80523 3.52652 7.64035 3.12846 7.64035 2.71341M10.771 2.71341C10.771 2.50789 10.7298 2.30439 10.6512 2.11452C10.5725 1.92465 10.4572 1.75213 10.3119 1.60681C10.1666 1.46149 9.99407 1.34621 9.8042 1.26756C9.61433 1.18892 9.41083 1.14844 9.20531 1.14844C8.79026 1.14844 8.3922 1.31332 8.09871 1.60681C7.80523 1.90029 7.64035 2.29835 7.64035 2.71341M7.64035 2.71341H1" stroke="#643927" stroke-width="1.5" stroke-miterlimit="10" stroke-linecap="round"/>
</svg>
