<svg width="44" height="44" viewBox="0 0 44 44" fill="none" xmlns="http://www.w3.org/2000/svg">
<circle cx="22" cy="22" r="21.25" transform="matrix(-1 0 0 1 44 0)" stroke="#966E5D" stroke-width="1.5"/>
<path d="M18.5472 12.2371L28.7213 21.3969C28.9 21.5578 29 21.7736 29 21.9983C29 22.223 28.9 22.4387 28.7213 22.5996L18.5472 31.7629C18.464 31.838 18.3645 31.8976 18.2545 31.9383C18.1446 31.979 18.0265 32 17.9072 32C17.7879 32 17.6697 31.979 17.5598 31.9383C17.4499 31.8976 17.3504 31.838 17.2671 31.7629C17.0959 31.6091 17 31.4025 17 31.1874C17 30.9723 17.0959 30.7658 17.2671 30.6119L26.8345 21.9983L17.2671 13.3864C17.0965 13.2326 17.001 13.0264 17.001 12.8117C17.001 12.5971 17.0965 12.3909 17.2671 12.2371C17.3504 12.162 17.4499 12.1024 17.5598 12.0617C17.6697 12.021 17.7879 12 17.9072 12C18.0265 12 18.1446 12.021 18.2545 12.0617C18.3645 12.1024 18.464 12.162 18.5472 12.2371Z" fill="#966E5D"/>
</svg>
