<svg width="490" height="56" viewBox="0 0 490 56" fill="none" xmlns="http://www.w3.org/2000/svg">
<g id="Google Login">
<rect x="0.5" y="0.5" width="489" height="55" rx="5.5" fill="white"/>
<rect x="0.5" y="0.5" width="489" height="55" rx="5.5" stroke="#BCBCBC"/>
<g id="Container" clip-path="url(#clip0_1516_8567)">
<g id="Google Logo">
<rect width="18" height="18" transform="translate(173 19)" fill="white"/>
<g id="logo googleg 48dp">
<path id="Shape" fill-rule="evenodd" clip-rule="evenodd" d="M191.14 28.7047C191.14 28.0665 191.083 27.4529 190.976 26.8638H182.5V30.3451H187.344C187.135 31.4701 186.501 32.4233 185.548 33.0615V35.3197H188.456C190.158 33.7529 191.14 31.4456 191.14 28.7047Z" fill="#4285F4"/>
<path id="Shape_2" fill-rule="evenodd" clip-rule="evenodd" d="M182.5 37.5C184.93 37.5 186.967 36.6941 188.456 35.3195L185.548 33.0613C184.742 33.6013 183.711 33.9204 182.5 33.9204C180.156 33.9204 178.172 32.3372 177.464 30.21H174.457V32.5418C175.938 35.4831 178.982 37.5 182.5 37.5Z" fill="#34A853"/>
<path id="Shape_3" fill-rule="evenodd" clip-rule="evenodd" d="M177.464 30.2098C177.284 29.6698 177.182 29.093 177.182 28.4998C177.182 27.9066 177.284 27.3298 177.464 26.7898V24.458H174.457C173.848 25.673 173.5 27.0476 173.5 28.4998C173.5 29.9521 173.848 31.3266 174.457 32.5416L177.464 30.2098Z" fill="#FBBC05"/>
<path id="Shape_4" fill-rule="evenodd" clip-rule="evenodd" d="M182.5 23.0795C183.821 23.0795 185.008 23.5336 185.94 24.4255L188.522 21.8441C186.963 20.3918 184.926 19.5 182.5 19.5C178.982 19.5 175.938 21.5168 174.457 24.4582L177.464 26.79C178.172 24.6627 180.156 23.0795 182.5 23.0795Z" fill="#EA4335"/>
</g>
</g>
<g id="Frame 1155">
<path id="Label" d="M208.475 33.035C205.535 33.035 203.63 31.52 203.63 27.95V27.65C203.63 23.72 205.985 22.415 208.58 22.415C209.885 22.415 210.725 22.715 211.34 23.03V24.32C210.71 24.05 209.93 23.705 208.55 23.705C206.075 23.705 205.28 25.49 205.28 27.455V27.935C205.28 30.155 205.925 31.76 208.49 31.76C209.135 31.76 209.81 31.67 210.215 31.505V28.985H208.175V27.755H211.76V32.42C210.965 32.75 209.825 33.035 208.475 33.035ZM216.719 33.005C214.454 33.005 213.164 31.595 213.164 29.21V28.955C213.164 26.525 214.604 25.07 216.734 25.07C218.954 25.07 220.259 26.495 220.259 28.91V29.135C220.259 31.565 218.804 33.005 216.719 33.005ZM216.734 31.85C217.979 31.85 218.714 30.965 218.714 29.285V28.88C218.714 26.855 217.814 26.255 216.704 26.255C215.414 26.255 214.679 27.14 214.679 28.82V29.225C214.679 31.25 215.594 31.85 216.734 31.85ZM224.878 33.005C222.613 33.005 221.323 31.595 221.323 29.21V28.955C221.323 26.525 222.763 25.07 224.893 25.07C227.113 25.07 228.418 26.495 228.418 28.91V29.135C228.418 31.565 226.963 33.005 224.878 33.005ZM224.893 31.85C226.138 31.85 226.873 30.965 226.873 29.285V28.88C226.873 26.855 225.973 26.255 224.863 26.255C223.573 26.255 222.838 27.14 222.838 28.82V29.225C222.838 31.25 223.753 31.85 224.893 31.85ZM232.677 35.09C230.322 35.09 229.182 34.58 229.182 33.44C229.182 32.645 229.827 32.135 230.607 31.865V31.79C230.172 31.64 229.827 31.46 229.827 30.95C229.827 30.41 230.112 29.96 230.712 29.54C230.142 29.15 229.752 28.55 229.752 27.695V27.545C229.752 25.955 230.982 25.07 232.722 25.07C233.142 25.07 233.517 25.115 233.877 25.19H236.472V26.255H235.242C235.512 26.555 235.647 26.975 235.647 27.485V27.635C235.647 29.24 234.372 30.005 232.707 30.005C232.272 30.005 231.852 29.96 231.462 29.84C231.297 30.005 231.177 30.2 231.177 30.395C231.177 30.785 231.387 30.815 231.882 30.815H233.982C235.407 30.815 236.427 31.325 236.427 32.81C236.427 34.22 235.332 35.09 232.677 35.09ZM232.647 33.995C234.312 33.995 234.897 33.77 234.897 33.035C234.897 32.405 234.537 32.15 233.637 32.15H231.582C231.072 32.315 230.697 32.66 230.697 33.23C230.697 33.83 231.252 33.995 232.647 33.995ZM232.707 28.985C233.667 28.985 234.207 28.565 234.207 27.695V27.485C234.207 26.525 233.622 26.12 232.707 26.12C231.777 26.12 231.207 26.585 231.207 27.455V27.665C231.207 28.565 231.807 28.985 232.707 28.985ZM237.697 32.87V21.92H239.167V32.87H237.697ZM244.467 33.005C241.992 33.005 240.762 31.535 240.762 29.135V28.94C240.762 26.315 242.337 25.07 244.182 25.07C246.342 25.07 247.347 26.315 247.347 28.73V29.45H242.277C242.382 31.205 243.237 31.79 244.737 31.79C245.742 31.79 246.402 31.55 247.107 31.235V32.27C246.627 32.615 245.742 33.005 244.467 33.005ZM244.122 26.24C243.312 26.24 242.397 26.66 242.277 28.37H245.802C245.802 26.825 245.232 26.24 244.122 26.24ZM259.209 29.525H255.084V31.76H260.379V32.99H248.304V31.76H253.554V29.525H249.849V25.205H257.289V23.48H249.804V22.25H258.819V26.45H251.394V28.28H259.209V29.525ZM276.232 34.685H274.702V21.32H276.232V34.685ZM273.367 30.44L272.452 31.595C271.312 30.86 269.887 29.21 269.392 27.74C268.942 29.33 267.607 31.01 266.137 31.895L265.192 30.77C267.262 29.42 268.582 27.215 268.582 24.665V22.475H270.172V24.575C270.172 27.14 271.417 29.21 273.367 30.44ZM278.366 23.45V22.175H285.401V23.45H282.731V23.48C282.731 25.445 284.216 26.9 285.761 27.41L284.921 28.64C283.796 28.19 282.521 27.14 281.936 25.88C281.546 27.2 280.121 28.49 278.771 29L277.871 27.815C279.746 27.11 281.156 25.52 281.156 23.525V23.45H278.366ZM279.866 29.855H288.596V34.7H287.051V31.07H279.866V29.855ZM290.546 25.835H288.581V29.15H287.036V21.32H288.581V24.56H290.546V25.835ZM298.169 29.18C298.169 30.785 296.894 32.03 294.989 32.03C293.069 32.03 291.779 30.83 291.779 29.18C291.779 27.59 293.069 26.33 294.989 26.33C296.894 26.33 298.169 27.545 298.169 29.18ZM296.654 29.18C296.654 28.235 295.949 27.59 294.989 27.59C294.014 27.59 293.324 28.235 293.324 29.18C293.324 30.11 294.014 30.77 294.989 30.77C296.024 30.77 296.654 30.11 296.654 29.18ZM298.844 25.685H291.074V24.44H298.844V25.685ZM292.964 23.36V22.1H297.014V23.36H292.964ZM301.559 21.32V26.81H303.629V28.1H301.559V34.685H300.014V21.32H301.559ZM315.168 34.685H313.638V21.32H315.168V34.685ZM311.073 22.73C310.983 26.87 308.913 30.065 305.058 32.18L304.098 31.01C307.173 29.6 309.168 26.795 309.423 23.99H304.878V22.73H311.073Z" fill="black" fill-opacity="0.54"/>
</g>
</g>
</g>
<defs>
<clipPath id="clip0_1516_8567">
<rect width="474" height="25" fill="white" transform="translate(8 15.5)"/>
</clipPath>
</defs>
</svg>
