<svg
  width="43"
  height="37"
  viewBox="0 0 43 37"
  fill="none"
  xmlns="http://www.w3.org/2000/svg"
>
  <path
    id="Vector"
    d="M30.7672 0C27.0437 0 23.739 1.46702 21.5 3.98851C19.261 1.46702 15.9563 0 12.2328 0C8.98963 0.00391654 5.88046 1.29155 3.58723 3.58047C1.29399 5.86938 0.00392393 8.9727 0 12.2097C0 25.5923 19.6113 36.285 20.4454 36.7346C20.7695 36.9088 21.1319 37 21.5 37C21.8681 37 22.2305 36.9088 22.5546 36.7346C23.3887 36.285 43 25.5923 43 12.2097C42.9961 8.9727 41.706 5.86938 39.4128 3.58047C37.1195 1.29155 34.0104 0.00391654 30.7672 0ZM29.7497 26.336C27.1683 28.5223 24.4089 30.4901 21.5 32.2188C18.5911 30.4901 15.8317 28.5223 13.2503 26.336C9.23388 22.8969 4.44828 17.6523 4.44828 12.2097C4.44828 10.149 5.26842 8.17274 6.7283 6.71562C8.18817 5.2585 10.1682 4.43989 12.2328 4.43989C15.5319 4.43989 18.2935 6.17885 19.4408 8.97969C19.6078 9.38798 19.8928 9.73739 20.2596 9.98334C20.6263 10.2293 21.0582 10.3606 21.5 10.3606C21.9418 10.3606 22.3737 10.2293 22.7404 9.98334C23.1072 9.73739 23.3922 9.38798 23.5592 8.97969C24.7065 6.17885 27.4681 4.43989 30.7672 4.43989C32.8318 4.43989 34.8118 5.2585 36.2717 6.71562C37.7316 8.17274 38.5517 10.149 38.5517 12.2097C38.5517 17.6523 33.7661 22.8969 29.7497 26.336Z"
    fill="#966E5D"
  />
</svg>
