<svg width="24" height="25" viewBox="0 0 24 25" fill="none" xmlns="http://www.w3.org/2000/svg">
<g id="ion:female">
<path id="Vector" d="M20.1562 9.40625C20.1562 4.90906 16.4972 1.25 12 1.25C7.50281 1.25 3.84375 4.90906 3.84375 9.40625C3.84375 13.5542 6.95625 16.9892 10.9688 17.4973V18.9688H9.28125C9.00775 18.9688 8.74544 19.0774 8.55205 19.2708C8.35865 19.4642 8.25 19.7265 8.25 20C8.25 20.2735 8.35865 20.5358 8.55205 20.7292C8.74544 20.9226 9.00775 21.0312 9.28125 21.0312H10.9688V22.7188C10.9688 22.9923 11.0774 23.2546 11.2708 23.448C11.4642 23.6413 11.7265 23.75 12 23.75C12.2735 23.75 12.5358 23.6413 12.7292 23.448C12.9226 23.2546 13.0312 22.9923 13.0312 22.7188V21.0312H14.7188C14.9923 21.0312 15.2546 20.9226 15.448 20.7292C15.6413 20.5358 15.75 20.2735 15.75 20C15.75 19.7265 15.6413 19.4642 15.448 19.2708C15.2546 19.0774 14.9923 18.9688 14.7188 18.9688H13.0312V17.4973C17.0437 16.9892 20.1562 13.5542 20.1562 9.40625ZM5.90625 9.40625C5.90625 6.04625 8.64 3.3125 12 3.3125C15.36 3.3125 18.0938 6.04625 18.0938 9.40625C18.0938 12.7662 15.36 15.5 12 15.5C8.64 15.5 5.90625 12.7662 5.90625 9.40625Z" fill="#FF90A4"/>
<path id="Vector_2" d="M20.1562 9.40625C20.1562 4.90906 16.4972 1.25 12 1.25C7.50281 1.25 3.84375 4.90906 3.84375 9.40625C3.84375 13.5542 6.95625 16.9892 10.9688 17.4973V18.9688H9.28125C9.00775 18.9688 8.74544 19.0774 8.55205 19.2708C8.35865 19.4642 8.25 19.7265 8.25 20C8.25 20.2735 8.35865 20.5358 8.55205 20.7292C8.74544 20.9226 9.00775 21.0312 9.28125 21.0312H10.9688V22.7188C10.9688 22.9923 11.0774 23.2546 11.2708 23.448C11.4642 23.6413 11.7265 23.75 12 23.75C12.2735 23.75 12.5358 23.6413 12.7292 23.448C12.9226 23.2546 13.0312 22.9923 13.0312 22.7188V21.0312H14.7188C14.9923 21.0312 15.2546 20.9226 15.448 20.7292C15.6413 20.5358 15.75 20.2735 15.75 20C15.75 19.7265 15.6413 19.4642 15.448 19.2708C15.2546 19.0774 14.9923 18.9688 14.7188 18.9688H13.0312V17.4973C17.0437 16.9892 20.1562 13.5542 20.1562 9.40625ZM5.90625 9.40625C5.90625 6.04625 8.64 3.3125 12 3.3125C15.36 3.3125 18.0938 6.04625 18.0938 9.40625C18.0938 12.7662 15.36 15.5 12 15.5C8.64 15.5 5.90625 12.7662 5.90625 9.40625Z" fill="url(#paint0_linear_3123_9444)"/>
</g>
<defs>
<linearGradient id="paint0_linear_3123_9444" x1="12" y1="1.25" x2="12" y2="23.75" gradientUnits="userSpaceOnUse">
<stop stop-color="#FFC5CF"/>
<stop offset="0.53" stop-color="#FF90A4" stop-opacity="0"/>
<stop offset="1" stop-color="#FF4667"/>
</linearGradient>
</defs>
</svg>
