<svg width="490" height="56" viewBox="0 0 490 56" fill="none" xmlns="http://www.w3.org/2000/svg">
<g id="Kakao Login">
<rect width="490" height="56" rx="6" fill="#FEE500"/>
<g id="Container" clip-path="url(#clip0_1516_8528)">
<g id="&#236;&#185;&#180;&#236;&#185;&#180;&#236;&#152;&#164; &#235;&#161;&#156;&#234;&#179;&#160;" clip-path="url(#clip1_1516_8528)">
<path id="Path" fill-rule="evenodd" clip-rule="evenodd" d="M185 19.6001C180.029 19.6001 176 22.7131 176 26.5524C176 28.9401 177.558 31.0451 179.932 32.2971L178.933 35.9446C178.845 36.2669 179.213 36.5238 179.496 36.337L183.873 33.4483C184.243 33.4839 184.618 33.5047 185 33.5047C189.97 33.5047 194 30.3919 194 26.5524C194 22.7131 189.97 19.6001 185 19.6001Z" fill="black"/>
</g>
<g id="Frame 1156">
<path id="Label" d="M213.215 22.715C213.2 27.29 211.115 30.35 207.29 32.36L206.3 31.25C208.235 30.365 209.855 28.94 210.77 27.095L206.855 27.515L206.615 26.18L211.28 25.835C211.445 25.235 211.565 24.62 211.61 23.96H207.29V22.715H213.215ZM216.83 21.32V26.54H218.9V27.815H216.83V34.685H215.285V21.32H216.83ZM226.193 22.715C226.178 27.29 224.093 30.35 220.268 32.36L219.278 31.25C221.213 30.365 222.833 28.94 223.748 27.095L219.833 27.515L219.593 26.18L224.258 25.835C224.423 25.235 224.543 24.62 224.588 23.96H220.268V22.715H226.193ZM229.808 21.32V26.54H231.878V27.815H229.808V34.685H228.263V21.32H229.808ZM244.482 32.975H232.407V31.745H237.657V29.465C235.182 29.225 233.607 27.815 233.607 25.82C233.607 23.615 235.542 22.145 238.437 22.145C241.377 22.145 243.297 23.615 243.297 25.82C243.297 27.83 241.692 29.24 239.187 29.48V31.745H244.482V32.975ZM241.752 25.835C241.752 24.41 240.447 23.405 238.437 23.405C236.472 23.405 235.152 24.41 235.152 25.835C235.152 27.245 236.472 28.205 238.437 28.205C240.432 28.205 241.752 27.245 241.752 25.835ZM256.29 29.525H252.165V31.76H257.46V32.99H245.385V31.76H250.635V29.525H246.93V25.205H254.37V23.48H246.885V22.25H255.9V26.45H248.475V28.28H256.29V29.525ZM273.314 34.685H271.784V21.32H273.314V34.685ZM270.449 30.44L269.534 31.595C268.394 30.86 266.969 29.21 266.474 27.74C266.024 29.33 264.689 31.01 263.219 31.895L262.274 30.77C264.344 29.42 265.664 27.215 265.664 24.665V22.475H267.254V24.575C267.254 27.14 268.499 29.21 270.449 30.44ZM275.448 23.45V22.175H282.483V23.45H279.813V23.48C279.813 25.445 281.298 26.9 282.843 27.41L282.003 28.64C280.878 28.19 279.603 27.14 279.018 25.88C278.628 27.2 277.203 28.49 275.853 29L274.953 27.815C276.828 27.11 278.238 25.52 278.238 23.525V23.45H275.448ZM276.948 29.855H285.678V34.7H284.133V31.07H276.948V29.855ZM287.628 25.835H285.663V29.15H284.118V21.32H285.663V24.56H287.628V25.835ZM295.251 29.18C295.251 30.785 293.976 32.03 292.071 32.03C290.151 32.03 288.861 30.83 288.861 29.18C288.861 27.59 290.151 26.33 292.071 26.33C293.976 26.33 295.251 27.545 295.251 29.18ZM293.736 29.18C293.736 28.235 293.031 27.59 292.071 27.59C291.096 27.59 290.406 28.235 290.406 29.18C290.406 30.11 291.096 30.77 292.071 30.77C293.106 30.77 293.736 30.11 293.736 29.18ZM295.926 25.685H288.156V24.44H295.926V25.685ZM290.046 23.36V22.1H294.096V23.36H290.046ZM298.641 21.32V26.81H300.711V28.1H298.641V34.685H297.096V21.32H298.641ZM312.25 34.685H310.72V21.32H312.25V34.685ZM308.155 22.73C308.065 26.87 305.995 30.065 302.14 32.18L301.18 31.01C304.255 29.6 306.25 26.795 306.505 23.99H301.96V22.73H308.155Z" fill="black" fill-opacity="0.85"/>
</g>
</g>
</g>
<defs>
<clipPath id="clip0_1516_8528">
<rect width="466" height="25" fill="white" transform="translate(12 15.5)"/>
</clipPath>
<clipPath id="clip1_1516_8528">
<rect width="17.9999" height="18" fill="white" transform="translate(176 19)"/>
</clipPath>
</defs>
</svg>
