<svg
  width="95"
  height="44"
  viewBox="0 0 95 44"
  fill="none"
  xmlns="http://www.w3.org/2000/svg"
>
  <g id="logo">
    <path
      id="Vector 3 (Stroke)"
      fill-rule="evenodd"
      clip-rule="evenodd"
      d="M47.5 0L95 13.4108L94.4847 15L47.5 1.73468L0.515319 15L0 13.4108L47.5 0Z"
      fill="#643927"
    />
    <g id="HOUSE-CONNECT">
      <path
        d="M5 29.352V19.2458H6.7862V23.6266H12.0389V19.2458H13.8251V29.352H12.0389V25.217H6.7862V29.352H5Z"
        fill="#643927"
      />
      <path
        d="M24.3053 21.6314C23.5888 20.9181 22.7058 20.5615 21.6563 20.5615C20.6067 20.5615 19.7187 20.9181 18.9921 21.6314C18.2756 22.3447 17.9173 23.2121 17.9173 24.2339C17.9173 25.2459 18.2756 26.1086 18.9921 26.8219C19.7187 27.5351 20.6067 27.8918 21.6563 27.8918C22.7058 27.8918 23.5888 27.5351 24.3053 26.8219C25.0319 26.1086 25.3952 25.2459 25.3952 24.2339C25.3952 23.2121 25.0319 22.3447 24.3053 21.6314ZM25.6222 27.9641C24.5525 28.9569 23.2305 29.4532 21.6563 29.4532C20.082 29.4532 18.76 28.9569 17.6903 27.9641C16.6206 26.9616 16.0857 25.7182 16.0857 24.2339C16.0857 22.7398 16.6206 21.4964 17.6903 20.5036C18.76 19.5012 20.082 19 21.6563 19C23.2305 19 24.5525 19.5012 25.6222 20.5036C26.6919 21.4964 27.2268 22.7398 27.2268 24.2339C27.2268 25.7182 26.6919 26.9616 25.6222 27.9641Z"
        fill="#643927"
      />
      <path
        d="M31.8565 27.0387C32.3409 27.5785 32.9968 27.8484 33.8243 27.8484C34.6518 27.8484 35.3078 27.5785 35.7922 27.0387C36.2766 26.499 36.5188 25.7664 36.5188 24.8411V19.2458H38.305V24.9134C38.305 26.3688 37.8862 27.4918 37.0486 28.2821C36.211 29.0629 35.1362 29.4532 33.8243 29.4532C32.5124 29.4532 31.4377 29.0629 30.6001 28.2821C29.7625 27.4918 29.3437 26.3688 29.3437 24.9134V19.2458H31.1299V24.8411C31.1299 25.7664 31.3721 26.499 31.8565 27.0387Z"
        fill="#643927"
      />
      <path
        d="M44.293 20.5759C43.7783 20.5759 43.3544 20.6771 43.0214 20.8796C42.6884 21.082 42.5219 21.3904 42.5219 21.8049C42.5219 22.2097 42.6884 22.523 43.0214 22.7447C43.3544 22.9567 44.0609 23.188 45.1406 23.4387C46.2305 23.6893 47.048 24.0411 47.5929 24.4941C48.1479 24.9471 48.4254 25.617 48.4254 26.5038C48.4254 27.3809 48.0773 28.0942 47.381 28.6436C46.6847 29.193 45.7714 29.4677 44.6411 29.4677C42.9861 29.4677 41.5178 28.9231 40.2362 27.8339L41.3563 26.5472C42.426 27.4339 43.5361 27.8773 44.6865 27.8773C45.2617 27.8773 45.7159 27.7616 46.0489 27.5303C46.392 27.2893 46.5636 26.9761 46.5636 26.5905C46.5636 26.1953 46.4021 25.8917 46.0792 25.6797C45.7663 25.458 45.2214 25.2604 44.4443 25.0869C43.6673 24.9037 43.0769 24.7399 42.6733 24.5953C42.2696 24.4411 41.9114 24.2435 41.5985 24.0025C40.9728 23.5495 40.66 22.8555 40.66 21.9205C40.66 20.9856 41.0132 20.2675 41.7196 19.7663C42.4361 19.2554 43.3191 19 44.3686 19C45.0448 19 45.7159 19.106 46.3819 19.3181C47.048 19.5301 47.6232 19.8289 48.1076 20.2145L47.1539 21.5013C46.8411 21.2314 46.4172 21.0097 45.8824 20.8362C45.3475 20.6627 44.8177 20.5759 44.293 20.5759Z"
        fill="#643927"
      />
      <path
        d="M58.0662 19.2458V20.8506H52.4199V23.5254H57.4909V25.0435H52.4199V27.7472H58.2478V29.352H50.6337V19.2458H58.0662Z"
        fill="#643927"
      />
      <path d="M5 40.3276V38.8095H10.0256V40.3276H5Z" fill="#643927" />
      <path
        d="M17.4063 42.3373C18.0219 42.3373 18.5517 42.2409 18.9958 42.0481C19.4398 41.8457 19.904 41.5277 20.3884 41.0939L21.5388 42.2216C20.4187 43.4072 19.0563 44 17.4518 44C15.8573 44 14.5303 43.5084 13.4706 42.5253C12.4211 41.5421 11.8964 40.2987 11.8964 38.7951C11.8964 37.2914 12.4312 36.0384 13.5009 35.0359C14.5807 34.0335 15.938 33.5323 17.5729 33.5323C19.2178 33.5323 20.5902 34.1106 21.6902 35.2673L20.5549 36.4528C20.0503 35.9902 19.571 35.6673 19.1169 35.4841C18.6728 35.301 18.1481 35.2094 17.5426 35.2094C16.4729 35.2094 15.5747 35.542 14.8481 36.2071C14.1215 36.8625 13.7582 37.7059 13.7582 38.7372C13.7582 39.7589 14.1165 40.6168 14.833 41.3108C15.5596 41.9951 16.4174 42.3373 17.4063 42.3373Z"
        fill="#643927"
      />
      <path
        d="M31.262 36.1637C30.5455 35.4504 29.6625 35.0938 28.6129 35.0938C27.5634 35.0938 26.6754 35.4504 25.9488 36.1637C25.2323 36.8769 24.874 37.7444 24.874 38.7661C24.874 39.7782 25.2323 40.6409 25.9488 41.3542C26.6754 42.0674 27.5634 42.4241 28.6129 42.4241C29.6625 42.4241 30.5455 42.0674 31.262 41.3542C31.9886 40.6409 32.3518 39.7782 32.3518 38.7661C32.3518 37.7444 31.9886 36.8769 31.262 36.1637ZM32.5789 42.4964C31.5092 43.4891 30.1872 43.9855 28.6129 43.9855C27.0387 43.9855 25.7167 43.4891 24.6469 42.4964C23.5772 41.4939 23.0424 40.2505 23.0424 38.7661C23.0424 37.2721 23.5772 36.0287 24.6469 35.0359C25.7167 34.0335 27.0387 33.5323 28.6129 33.5323C30.1872 33.5323 31.5092 34.0335 32.5789 35.0359C33.6486 36.0287 34.1835 37.2721 34.1835 38.7661C34.1835 40.2505 33.6486 41.4939 32.5789 42.4964Z"
        fill="#643927"
      />
      <path
        d="M44.3685 33.7781H46.1547V43.8843H44.2172L38.2228 36.5107V43.8843H36.4366V33.7781H38.2228L44.3685 41.3252V33.7781Z"
        fill="#643927"
      />
      <path
        d="M57.0224 33.7781H58.8086V43.8843H56.871L50.8766 36.5107V43.8843H49.0904V33.7781H50.8766L57.0224 41.3252V33.7781Z"
        fill="#643927"
      />
      <path
        d="M69.1767 33.7781V35.3829H63.5305V38.0577H68.6015V39.5758H63.5305V42.2795H69.3584V43.8843H61.7443V33.7781H69.1767Z"
        fill="#643927"
      />
      <path
        d="M76.4774 42.3373C77.093 42.3373 77.6228 42.2409 78.0668 42.0481C78.5108 41.8457 78.975 41.5277 79.4594 41.0939L80.6099 42.2216C79.4897 43.4072 78.1274 44 76.5228 44C74.9284 44 73.6013 43.5084 72.5417 42.5253C71.4922 41.5421 70.9674 40.2987 70.9674 38.7951C70.9674 37.2914 71.5023 36.0384 72.572 35.0359C73.6518 34.0335 75.0091 33.5323 76.6439 33.5323C78.2888 33.5323 79.6613 34.1106 80.7613 35.2673L79.626 36.4528C79.1214 35.9902 78.642 35.6673 78.1879 35.4841C77.7439 35.301 77.2191 35.2094 76.6136 35.2094C75.5439 35.2094 74.6458 35.542 73.9192 36.2071C73.1926 36.8625 72.8293 37.7059 72.8293 38.7372C72.8293 39.7589 73.1875 40.6168 73.904 41.3108C74.6306 41.9951 75.4884 42.3373 76.4774 42.3373Z"
        fill="#643927"
      />
      <path
        d="M86.7909 35.3396V43.8843H85.0047V35.3396H81.7956V33.7781H90V35.3396H86.7909Z"
        fill="#643927"
      />
    </g>
  </g>
</svg>
