<svg xmlns="http://www.w3.org/2000/svg" viewbox="0 0 105 147" width="105" height="147" fill="none">
  <g fill="#643927">
    <path
      fill-rule="evenodd"
      d="M52.5 48 105 64.093 104.43 66 52.5 50.082.57 66 0 64.093 52.5 48Z"
      clip-rule="evenodd"
    />
    <path
      d="M6 82.008V70.285h1.954v5.082h5.747v-5.082h1.955v11.723H13.7v-4.796H7.954v4.796H6ZM27.122 73.052c-.784-.827-1.75-1.24-2.898-1.24-1.148 0-2.12.413-2.915 1.24-.784.828-1.176 1.834-1.176 3.02 0 1.173.392 2.174 1.176 3.001.795.828 1.767 1.241 2.915 1.241 1.148 0 2.114-.413 2.898-1.24.795-.828 1.193-1.829 1.193-3.003 0-1.185-.398-2.191-1.193-3.019Zm1.441 7.346c-1.17 1.152-2.617 1.728-4.34 1.728-1.721 0-3.168-.576-4.338-1.728-1.17-1.162-1.756-2.605-1.756-4.327 0-1.733.585-3.175 1.756-4.327C21.055 70.581 22.5 70 24.224 70c1.722 0 3.169.581 4.34 1.744 1.17 1.152 1.755 2.594 1.755 4.327 0 1.722-.585 3.165-1.756 4.327ZM35.384 79.325c.53.626 1.248.94 2.153.94.906 0 1.623-.314 2.153-.94.53-.626.795-1.476.795-2.55v-6.49h1.955v6.575c0 1.688-.459 2.99-1.375 3.907-.916.906-2.092 1.359-3.528 1.359-1.435 0-2.611-.453-3.527-1.359-.917-.917-1.375-2.22-1.375-3.907v-6.575h1.954v6.49c0 1.074.265 1.924.795 2.55ZM48.991 71.828c-.563 0-1.027.117-1.391.352-.364.235-.547.593-.547 1.074 0 .47.183.833.547 1.09.364.246 1.137.514 2.319.805 1.192.29 2.086.699 2.683 1.224.607.526.91 1.303.91 2.331 0 1.018-.38 1.845-1.142 2.483-.762.637-1.761.956-2.998.956-1.81 0-3.417-.632-4.82-1.896l1.226-1.492c1.17 1.028 2.385 1.543 3.644 1.543.63 0 1.126-.135 1.49-.403.376-.28.563-.643.563-1.09 0-.458-.176-.81-.53-1.057-.342-.257-.938-.486-1.788-.687-.85-.213-1.496-.403-1.938-.57a4.538 4.538 0 0 1-1.176-.688c-.684-.526-1.027-1.33-1.027-2.415s.387-1.918 1.16-2.5c.783-.592 1.75-.888 2.898-.888.74 0 1.474.123 2.203.369a5.737 5.737 0 0 1 1.888 1.04L52.12 72.9c-.342-.313-.806-.57-1.39-.771a5.32 5.32 0 0 0-1.74-.302ZM64.06 70.285v1.862h-6.177v3.102h5.548v1.761h-5.548v3.137h6.376v1.861h-8.33V70.285h8.132ZM6 94.74v-1.761h5.499v1.761H6ZM19.574 97.071c.673 0 1.253-.111 1.739-.335.486-.235.994-.604 1.524-1.107l1.258 1.308C22.87 98.312 21.38 99 19.624 99c-1.745 0-3.197-.57-4.356-1.71-1.148-1.141-1.723-2.584-1.723-4.328 0-1.744.586-3.198 1.756-4.36 1.181-1.163 2.667-1.745 4.455-1.745 1.8 0 3.302.671 4.505 2.013l-1.242 1.375c-.552-.536-1.077-.911-1.573-1.123-.486-.213-1.06-.319-1.723-.319-1.17 0-2.153.386-2.948 1.157-.795.76-1.192 1.739-1.192 2.935 0 1.185.392 2.18 1.176 2.986.794.793 1.733 1.19 2.815 1.19ZM34.734 89.91c-.784-.828-1.75-1.241-2.899-1.241-1.148 0-2.12.413-2.915 1.24-.784.828-1.176 1.834-1.176 3.02 0 1.174.393 2.174 1.176 3.002.795.827 1.767 1.24 2.915 1.24 1.149 0 2.115-.413 2.899-1.24.795-.828 1.192-1.828 1.192-3.002 0-1.186-.397-2.192-1.192-3.02Zm1.44 7.346c-1.17 1.151-2.616 1.727-4.339 1.727-1.722 0-3.169-.576-4.339-1.727-1.17-1.163-1.755-2.605-1.755-4.327 0-1.733.585-3.176 1.755-4.327 1.17-1.163 2.617-1.745 4.34-1.745 1.722 0 3.168.582 4.339 1.745 1.17 1.151 1.755 2.594 1.755 4.327 0 1.722-.585 3.164-1.755 4.327ZM49.074 87.143h1.954v11.723h-2.12l-6.558-8.554v8.554h-1.955V87.143h1.955l6.724 8.754v-8.754ZM62.919 87.143h1.954v11.723h-2.12l-6.559-8.554v8.554H54.24V87.143h1.954l6.725 8.754v-8.754ZM76.217 87.143v1.861h-6.178v3.103h5.549v1.76h-5.549v3.137h6.377v1.862h-8.331V87.143h8.132ZM84.205 97.071c.673 0 1.253-.111 1.739-.335.486-.235.993-.604 1.523-1.107l1.26 1.308C87.5 98.312 86.01 99 84.253 99c-1.744 0-3.196-.57-4.355-1.71-1.149-1.141-1.723-2.584-1.723-4.328 0-1.744.585-3.198 1.756-4.36 1.181-1.163 2.666-1.745 4.455-1.745 1.8 0 3.301.671 4.505 2.013l-1.242 1.375c-.553-.536-1.077-.911-1.574-1.123-.486-.213-1.06-.319-1.722-.319-1.17 0-2.153.386-2.948 1.157-.795.76-1.193 1.739-1.193 2.935 0 1.185.392 2.18 1.176 2.986.795.793 1.734 1.19 2.816 1.19ZM95.489 88.954v9.912h-1.955v-9.912h-3.51v-1.811H99v1.81h-3.511Z"
    />
  </g>
</svg>
