<svg
  width="76"
  height="68"
  viewBox="0 0 76 68"
  fill="none"
  xmlns="http://www.w3.org/2000/svg"
>
  <g id="male" clip-path="url(#clip0_1059_12133)">
    <g id="male-house">
      <g id="house">
        <rect
          id="Rectangle 396"
          x="12"
          y="27"
          width="47"
          height="28"
          fill="#B3D9F4"
        />
        <rect
          id="Rectangle 396_2"
          x="12"
          y="27"
          width="47"
          height="28"
          fill="url(#paint0_linear_1059_12133)"
        />
        <path
          id="Polygon 14"
          d="M35.5 5L68.842 29H2.15802L35.5 5Z"
          fill="#B3D9F4"
        />
        <path
          id="Polygon 14_2"
          d="M35.5 5L68.842 29H2.15802L35.5 5Z"
          fill="url(#paint1_linear_1059_12133)"
        />
      </g>
      <path
        id="Vector"
        d="M38 37C39.1046 37 40 36.1046 40 35C40 33.8954 39.1046 33 38 33C36.8954 33 36 33.8954 36 35C36 36.1046 36.8954 37 38 37Z"
        fill="#643927"
      />
      <path
        id="Vector_2"
        d="M23 37C24.1046 37 25 36.1046 25 35C25 33.8954 24.1046 33 23 33C21.8954 33 21 33.8954 21 35C21 36.1046 21.8954 37 23 37Z"
        fill="#643927"
      />
      <path
        id="Vector 13"
        d="M28 41C28 41 28 44 30.9986 44C34.2046 44 33.9973 41 33.9973 41"
        stroke="#643927"
        stroke-width="2"
        stroke-linecap="round"
      />
    </g>
    <g id="icon-male">
      <path
        id="Vector_3"
        d="M72.3515 40.1875H66.375C65.9875 40.1875 65.6159 40.3414 65.3419 40.6154C65.068 40.8894 64.914 41.261 64.914 41.6484C64.914 42.0359 65.068 42.4075 65.3419 42.6815C65.6159 42.9555 65.9875 43.1094 66.375 43.1094H68.8247L64.8144 47.1196C60.2862 43.6094 53.7246 43.9321 49.5715 48.0872C45.0665 52.5929 45.0665 59.9228 49.5742 64.4258C51.7427 66.5878 54.68 67.8019 57.7422 67.8019C60.8043 67.8019 63.7416 66.5878 65.9101 64.4258C70.0652 60.2701 70.3879 53.7111 66.8777 49.1829L70.8906 45.1753V47.625C70.8906 48.0125 71.0445 48.3841 71.3185 48.658C71.5925 48.932 71.9641 49.0859 72.3515 49.0859C72.739 49.0859 73.1106 48.932 73.3846 48.658C73.6585 48.3841 73.8125 48.0125 73.8125 47.625V41.6484C73.8125 41.4566 73.7747 41.2666 73.7013 41.0894C73.6278 40.9121 73.5202 40.7511 73.3846 40.6154C73.2489 40.4797 73.0879 40.3721 72.9106 40.2987C72.7334 40.2253 72.5434 40.1875 72.3515 40.1875ZM63.8462 62.3619C62.2262 63.9786 60.0309 64.8865 57.7422 64.8865C55.4534 64.8865 53.2582 63.9786 51.6381 62.3619C48.272 58.9964 48.272 53.5192 51.6381 50.1538C55.0042 46.7883 60.4808 46.7876 63.8462 50.1538C67.2117 53.5199 67.2124 58.9964 63.8462 62.3619Z"
        fill="#346EC4"
      />
      <path
        id="Vector_4"
        d="M72.3518 40.1875H66.3752C65.9877 40.1875 65.6162 40.3414 65.3422 40.6154C65.0682 40.8894 64.9143 41.261 64.9143 41.6484C64.9143 42.0359 65.0682 42.4075 65.3422 42.6815C65.6162 42.9555 65.9877 43.1094 66.3752 43.1094H68.8249L64.8147 47.1196C60.2864 43.6094 53.7248 43.9321 49.5718 48.0872C45.0668 52.5929 45.0668 59.9228 49.5744 64.4258C51.743 66.5878 54.6802 67.8019 57.7424 67.8019C60.8046 67.8019 63.7418 66.5878 65.9104 64.4258C70.0654 60.2701 70.3881 53.7111 66.8779 49.1829L70.8908 45.1753V47.625C70.8908 48.0125 71.0448 48.3841 71.3187 48.658C71.5927 48.932 71.9643 49.0859 72.3518 49.0859C72.7392 49.0859 73.1108 48.932 73.3848 48.658C73.6588 48.3841 73.8127 48.0125 73.8127 47.625V41.6484C73.8127 41.4566 73.7749 41.2666 73.7015 41.0894C73.6281 40.9121 73.5205 40.7511 73.3848 40.6154C73.2492 40.4797 73.0881 40.3721 72.9109 40.2987C72.7336 40.2253 72.5436 40.1875 72.3518 40.1875ZM63.8465 62.3619C62.2264 63.9786 60.0311 64.8865 57.7424 64.8865C55.4537 64.8865 53.2584 63.9786 51.6383 62.3619C48.2722 58.9964 48.2722 53.5192 51.6383 50.1538C55.0045 46.7883 60.481 46.7876 63.8465 50.1538C67.2119 53.5199 67.2126 58.9964 63.8465 62.3619Z"
        fill="url(#paint2_linear_1059_12133)"
      />
    </g>
  </g>
  <defs>
    <linearGradient
      id="paint0_linear_1059_12133"
      x1="35.5"
      y1="27"
      x2="35.5"
      y2="58"
      gradientUnits="userSpaceOnUse"
    >
      <stop stop-color="#E0EAF9" />
      <stop offset="0.43" stop-color="#D9D9D9" stop-opacity="0" />
      <stop offset="1" stop-color="#6B9EEA" stop-opacity="0.5" />
    </linearGradient>
    <linearGradient
      id="paint1_linear_1059_12133"
      x1="35.5"
      y1="5"
      x2="35.5"
      y2="32"
      gradientUnits="userSpaceOnUse"
    >
      <stop stop-color="#EAECFF" />
      <stop offset="0.42" stop-color="#D9D9D9" stop-opacity="0" />
      <stop offset="1" stop-color="#6B9EEA" stop-opacity="0.5" />
    </linearGradient>
    <linearGradient
      id="paint2_linear_1059_12133"
      x1="60.003"
      y1="40.1875"
      x2="60.003"
      y2="67.8019"
      gradientUnits="userSpaceOnUse"
    >
      <stop stop-color="#A4C9FF" />
      <stop offset="0.66" stop-color="#346EC4" stop-opacity="0" />
      <stop offset="1" stop-color="#1E4E97" />
    </linearGradient>
    <clipPath id="clip0_1059_12133">
      <rect width="76" height="68" fill="white" />
    </clipPath>
  </defs>
</svg>
