<svg xmlns="http://www.w3.org/2000/svg" width="76" height="68" fill="none">
  <g clip-path="url(#a)">
    <path fill="#B3D9F4" d="M12 27h47v28H12z" />
    <path fill="url(#b)" d="M12 27h47v28H12z" />
    <path fill="#B3D9F4" d="m35.5 5 33.342 24H2.158L35.5 5Z" />
    <path fill="url(#c)" d="m35.5 5 33.342 24H2.158L35.5 5Z" />
    <path
      fill="#643927"
      d="M38 37a2 2 0 1 0 0-4 2 2 0 0 0 0 4ZM23 37a2 2 0 1 0 0-4 2 2 0 0 0 0 4Z"
    />
    <path
      stroke="#643927"
      stroke-linecap="round"
      stroke-width="2"
      d="M28 41s0 3 2.999 3c3.206 0 2.998-3 2.998-3"
    />
    <path
      fill="#346EC4"
      d="M72.352 40.188h-5.977a1.461 1.461 0 1 0 0 2.921h2.45l-4.01 4.01c-4.529-3.51-11.09-3.187-15.243.968-4.506 4.506-4.506 11.836.002 16.339a11.569 11.569 0 0 0 16.336 0c4.155-4.156 4.478-10.715.968-15.243l4.013-4.008v2.45a1.46 1.46 0 1 0 2.921 0v-5.977a1.46 1.46 0 0 0-1.46-1.46Zm-8.506 22.174a8.641 8.641 0 0 1-12.208 0c-3.366-3.366-3.366-8.843 0-12.208 3.366-3.366 8.843-3.366 12.208 0 3.366 3.366 3.366 8.842 0 12.208Z"
    />
    <path
      fill="url(#d)"
      d="M72.352 40.188h-5.977a1.46 1.46 0 1 0 0 2.921h2.45l-4.01 4.01c-4.529-3.51-11.09-3.187-15.243.968-4.505 4.506-4.505 11.836.002 16.339a11.569 11.569 0 0 0 16.336 0c4.155-4.156 4.478-10.715.968-15.243l4.013-4.008v2.45a1.461 1.461 0 0 0 2.922 0v-5.977a1.46 1.46 0 0 0-1.461-1.46Zm-8.506 22.174a8.642 8.642 0 0 1-12.208 0c-3.366-3.366-3.366-8.843 0-12.208 3.367-3.366 8.843-3.366 12.209 0 3.365 3.366 3.366 8.842 0 12.208Z"
    />
  </g>
  <defs>
    <linearGradient
      id="b"
      x1="35.5"
      x2="35.5"
      y1="27"
      y2="58"
      gradientUnits="userSpaceOnUse"
    >
      <stop stop-color="#E0EAF9" />
      <stop offset=".43" stop-color="#D9D9D9" stop-opacity="0" />
      <stop offset="1" stop-color="#6B9EEA" stop-opacity=".5" />
    </linearGradient>
    <linearGradient
      id="c"
      x1="35.5"
      x2="35.5"
      y1="5"
      y2="32"
      gradientUnits="userSpaceOnUse"
    >
      <stop stop-color="#EAECFF" />
      <stop offset=".42" stop-color="#D9D9D9" stop-opacity="0" />
      <stop offset="1" stop-color="#6B9EEA" stop-opacity=".5" />
    </linearGradient>
    <linearGradient
      id="d"
      x1="60.003"
      x2="60.003"
      y1="40.188"
      y2="67.802"
      gradientUnits="userSpaceOnUse"
    >
      <stop stop-color="#A4C9FF" />
      <stop offset=".66" stop-color="#346EC4" stop-opacity="0" />
      <stop offset="1" stop-color="#1E4E97" />
    </linearGradient>
    <clipPath id="a"><path fill="#fff" d="M0 0h76v68H0z" /></clipPath>
  </defs>
</svg>
