<svg
  width="18"
  height="19"
  viewBox="0 0 18 19"
  fill="none"
  xmlns="http://www.w3.org/2000/svg"
>
  <g id="Group 731">
    <path
      id="Vector"
      d="M9 3.07143C7.29504 3.07143 5.6599 3.74872 4.45431 4.95431C3.24872 6.1599 2.57143 7.79504 2.57143 9.5C2.57143 11.205 3.24872 12.8401 4.45431 14.0457C5.6599 15.2513 7.29504 15.9286 9 15.9286C10.705 15.9286 12.3401 15.2513 13.5457 14.0457C14.7513 12.8401 15.4286 11.205 15.4286 9.5C15.4286 7.79504 14.7513 6.1599 13.5457 4.95431C12.3401 3.74872 10.705 3.07143 9 3.07143ZM18 9.5C18 11.8869 17.0518 14.1761 15.364 15.864C13.6761 17.5518 11.3869 18.5 9 18.5C6.61305 18.5 4.32387 17.5518 2.63604 15.864C0.948211 14.1761 0 11.8869 0 9.5C0 7.11305 0.948211 4.82387 2.63604 3.13604C4.32387 1.44821 6.61305 0.5 9 0.5C11.3869 0.5 13.6761 1.44821 15.364 3.13604C17.0518 4.82387 18 7.11305 18 9.5Z"
      fill="#A5B8FB"
    />
    <path
      id="Vector_2"
      d="M9 3.07143C7.29504 3.07143 5.6599 3.74872 4.45431 4.95431C3.24872 6.1599 2.57143 7.79504 2.57143 9.5C2.57143 11.205 3.24872 12.8401 4.45431 14.0457C5.6599 15.2513 7.29504 15.9286 9 15.9286C10.705 15.9286 12.3401 15.2513 13.5457 14.0457C14.7513 12.8401 15.4286 11.205 15.4286 9.5C15.4286 7.79504 14.7513 6.1599 13.5457 4.95431C12.3401 3.74872 10.705 3.07143 9 3.07143ZM18 9.5C18 11.8869 17.0518 14.1761 15.364 15.864C13.6761 17.5518 11.3869 18.5 9 18.5C6.61305 18.5 4.32387 17.5518 2.63604 15.864C0.948212 14.1761 0 11.8869 0 9.5C0 7.11305 0.948212 4.82387 2.63604 3.13604C4.32387 1.44821 6.61305 0.5 9 0.5C11.3869 0.5 13.6761 1.44821 15.364 3.13604C17.0518 4.82387 18 7.11305 18 9.5Z"
      fill="url(#paint0_linear_2420_9499)"
    />
  </g>
  <defs>
    <linearGradient
      id="paint0_linear_2420_9499"
      x1="9"
      y1="0.5"
      x2="9"
      y2="22.5"
      gradientUnits="userSpaceOnUse"
    >
      <stop stop-color="#DAE1F9" />
      <stop offset="0.53" stop-color="#6788FE" />
      <stop offset="1" stop-color="#A5B8FB" stop-opacity="0" />
    </linearGradient>
  </defs>
</svg>
