<svg width="29" height="26" viewBox="0 0 29 26" fill="none" xmlns="http://www.w3.org/2000/svg">
<g filter="url(#filter0_d_4041_1644)">
<path d="M19.0703 4.01562C17.2654 4.01562 15.6634 4.72809 14.5781 5.95266C13.4928 4.72809 11.8909 4.01562 10.0859 4.01562C8.51387 4.01753 7.00674 4.64287 5.89512 5.75449C4.7835 6.86611 4.15815 8.37325 4.15625 9.94531C4.15625 16.4446 13.6626 21.6376 14.0669 21.8559C14.224 21.9405 14.3997 21.9848 14.5781 21.9848C14.7566 21.9848 14.9322 21.9405 15.0893 21.8559C15.4936 21.6376 25 16.4446 25 9.94531C24.9981 8.37325 24.3728 6.86611 23.2611 5.75449C22.1495 4.64287 20.6424 4.01753 19.0703 4.01562ZM18.5771 16.8058C17.3258 17.8676 15.9882 18.8232 14.5781 19.6628C13.1681 18.8232 11.8305 17.8676 10.5792 16.8058C8.63227 15.1356 6.3125 12.5885 6.3125 9.94531C6.3125 8.94453 6.71006 7.98475 7.41771 7.27709C8.12537 6.56943 9.08516 6.17188 10.0859 6.17188C11.6852 6.17188 13.0238 7.01641 13.58 8.37664C13.6609 8.57493 13.7991 8.74462 13.9769 8.86407C14.1546 8.98352 14.3639 9.04731 14.5781 9.04731C14.7923 9.04731 15.0016 8.98352 15.1794 8.86407C15.3572 8.74462 15.4953 8.57493 15.5763 8.37664C16.1324 7.01641 17.4711 6.17188 19.0703 6.17188C20.0711 6.17188 21.0309 6.56943 21.7385 7.27709C22.4462 7.98475 22.8438 8.94453 22.8438 9.94531C22.8438 12.5885 20.524 15.1356 18.5771 16.8058Z" fill="white"/>
</g>
<defs>
<filter id="filter0_d_4041_1644" x="0.15625" y="0" width="28.8438" height="26" filterUnits="userSpaceOnUse" color-interpolation-filters="sRGB">
<feFlood flood-opacity="0" result="BackgroundImageFix"/>
<feColorMatrix in="SourceAlpha" type="matrix" values="0 0 0 0 0 0 0 0 0 0 0 0 0 0 0 0 0 0 127 0" result="hardAlpha"/>
<feOffset/>
<feGaussianBlur stdDeviation="2"/>
<feComposite in2="hardAlpha" operator="out"/>
<feColorMatrix type="matrix" values="0 0 0 0 0 0 0 0 0 0 0 0 0 0 0 0 0 0 0.25 0"/>
<feBlend mode="normal" in2="BackgroundImageFix" result="effect1_dropShadow_4041_1644"/>
<feBlend mode="normal" in="SourceGraphic" in2="effect1_dropShadow_4041_1644" result="shape"/>
</filter>
</defs>
</svg>
