<svg
  width="24"
  height="25"
  viewBox="0 0 24 25"
  fill="none"
  xmlns="http://www.w3.org/2000/svg"
>
  <g id="icon-male">
    <path
      id="Vector"
      d="M20.7187 2.75H16.4999C16.2264 2.75 15.9641 2.85865 15.7707 3.05205C15.5773 3.24544 15.4687 3.50775 15.4687 3.78125C15.4687 4.05475 15.5773 4.31706 15.7707 4.51045C15.9641 4.70385 16.2264 4.8125 16.4999 4.8125H18.2291L15.3984 7.64328C12.202 5.16547 7.57023 5.39328 4.63867 8.32625C1.45867 11.5067 1.45867 16.6808 4.64055 19.8594C6.17128 21.3855 8.24464 22.2425 10.4062 22.2425C12.5677 22.2425 14.6411 21.3855 16.1718 19.8594C19.1048 16.9259 19.3326 12.2961 16.8548 9.09969L19.6874 6.27078V8C19.6874 8.2735 19.7961 8.53581 19.9895 8.7292C20.1829 8.9226 20.4452 9.03125 20.7187 9.03125C20.9922 9.03125 21.2545 8.9226 21.4479 8.7292C21.6413 8.53581 21.7499 8.2735 21.7499 8V3.78125C21.7499 3.64582 21.7232 3.51172 21.6714 3.38661C21.6196 3.26149 21.5436 3.14781 21.4479 3.05205C21.3521 2.95629 21.2384 2.88032 21.1133 2.8285C20.9882 2.77667 20.8541 2.75 20.7187 2.75ZM14.7149 18.4025C13.5713 19.5437 12.0218 20.1846 10.4062 20.1846C8.79059 20.1846 7.241 19.5437 6.09742 18.4025C3.72133 16.0269 3.72133 12.1606 6.09742 9.785C8.47352 7.40938 12.3393 7.40891 14.7149 9.785C17.0905 12.1611 17.091 16.0269 14.7149 18.4025Z"
      fill="#346EC4"
    />
    <path
      id="Vector_2"
      d="M20.7187 2.75H16.4999C16.2264 2.75 15.9641 2.85865 15.7707 3.05205C15.5773 3.24544 15.4687 3.50775 15.4687 3.78125C15.4687 4.05475 15.5773 4.31706 15.7707 4.51045C15.9641 4.70385 16.2264 4.8125 16.4999 4.8125H18.2291L15.3984 7.64328C12.202 5.16547 7.57023 5.39328 4.63867 8.32625C1.45867 11.5067 1.45867 16.6808 4.64055 19.8594C6.17128 21.3855 8.24464 22.2425 10.4062 22.2425C12.5677 22.2425 14.6411 21.3855 16.1718 19.8594C19.1048 16.9259 19.3326 12.2961 16.8548 9.09969L19.6874 6.27078V8C19.6874 8.2735 19.7961 8.53581 19.9895 8.7292C20.1829 8.9226 20.4452 9.03125 20.7187 9.03125C20.9922 9.03125 21.2545 8.9226 21.4479 8.7292C21.6413 8.53581 21.7499 8.2735 21.7499 8V3.78125C21.7499 3.64582 21.7232 3.51172 21.6714 3.38661C21.6196 3.26149 21.5436 3.14781 21.4479 3.05205C21.3521 2.95629 21.2384 2.88032 21.1133 2.8285C20.9882 2.77667 20.8541 2.75 20.7187 2.75ZM14.7149 18.4025C13.5713 19.5437 12.0218 20.1846 10.4062 20.1846C8.79059 20.1846 7.241 19.5437 6.09742 18.4025C3.72133 16.0269 3.72133 12.1606 6.09742 9.785C8.47352 7.40938 12.3393 7.40891 14.7149 9.785C17.0905 12.1611 17.091 16.0269 14.7149 18.4025Z"
      fill="url(#paint0_linear_2420_9466)"
    />
  </g>
  <defs>
    <linearGradient
      id="paint0_linear_2420_9466"
      x1="12.0019"
      y1="2.75"
      x2="12.0019"
      y2="22.2425"
      gradientUnits="userSpaceOnUse"
    >
      <stop stop-color="#A4C9FF" />
      <stop offset="0.66" stop-color="#346EC4" stop-opacity="0" />
      <stop offset="1" stop-color="#1E4E97" />
    </linearGradient>
  </defs>
</svg>
