<svg
  width="18"
  height="17"
  viewBox="0 0 18 17"
  fill="none"
  xmlns="http://www.w3.org/2000/svg"
>
  <g id="Group 712">
    <path
      id="Vector"
      d="M1.67344 9.87583L8.02617 15.7837C8.28984 16.0288 8.63789 16.1654 9 16.1654C9.36211 16.1654 9.71016 16.0288 9.97383 15.7837L16.3266 9.87583C17.3953 8.88477 18 7.49449 18 6.04118V5.83806C18 3.39019 16.2246 1.30301 13.8023 0.900288C12.1992 0.634139 10.568 1.15593 9.42188 2.29757L9 2.71781L8.57812 2.29757C7.43203 1.15593 5.80078 0.634139 4.19766 0.900288C1.77539 1.30301 0 3.39019 0 5.83806V6.04118C0 7.49449 0.604687 8.88477 1.67344 9.87583Z"
      fill="#FEB8B8"
    />
    <path
      id="Vector_2"
      d="M1.67344 9.87583L8.02617 15.7837C8.28984 16.0288 8.63789 16.1654 9 16.1654C9.36211 16.1654 9.71016 16.0288 9.97383 15.7837L16.3266 9.87583C17.3953 8.88477 18 7.49449 18 6.04118V5.83806C18 3.39019 16.2246 1.30301 13.8023 0.900288C12.1992 0.634139 10.568 1.15593 9.42188 2.29757L9 2.71781L8.57812 2.29757C7.43203 1.15593 5.80078 0.634139 4.19766 0.900288C1.77539 1.30301 0 3.39019 0 5.83806V6.04118C0 7.49449 0.604687 8.88477 1.67344 9.87583Z"
      fill="url(#paint0_linear_2420_9487)"
    />
  </g>
  <defs>
    <linearGradient
      id="paint0_linear_2420_9487"
      x1="9"
      y1="0.832031"
      x2="9"
      y2="16.1654"
      gradientUnits="userSpaceOnUse"
    >
      <stop offset="0.085" stop-color="#FFD9D9" />
      <stop offset="0.39" stop-color="#FEB8B8" stop-opacity="0" />
      <stop offset="1" stop-color="#FFA1A1" />
    </linearGradient>
  </defs>
</svg>
