<svg
  width="18"
  height="19"
  viewBox="0 0 18 19"
  fill="none"
  xmlns="http://www.w3.org/2000/svg"
>
  <g id="no">
    <path
      id="Vector"
      d="M17.6208 16.3023C17.8622 16.5437 17.9979 16.8712 17.9979 17.2126C17.9979 17.554 17.8622 17.8815 17.6208 18.1229C17.3793 18.3644 17.0518 18.5 16.7104 18.5C16.3689 18.5 16.0415 18.3644 15.8 18.1229L9 11.3212L2.19785 18.1208C1.9564 18.3622 1.62893 18.4979 1.28747 18.4979C0.946014 18.4979 0.61854 18.3622 0.377092 18.1208C0.135644 17.8794 3.59785e-09 17.5519 0 17.2105C-3.59785e-09 16.869 0.135644 16.5416 0.377092 16.3001L7.17924 9.50054L0.379234 2.69879C0.137786 2.45736 0.00214212 2.1299 0.00214212 1.78847C0.00214212 1.44703 0.137786 1.11957 0.379234 0.87814C0.620682 0.636707 0.948155 0.501071 1.28961 0.501071C1.63107 0.501071 1.95855 0.636707 2.2 0.87814L9 7.67988L15.8021 0.877069C16.0436 0.635636 16.3711 0.5 16.7125 0.5C17.054 0.5 17.3815 0.635636 17.6229 0.877069C17.8644 1.1185 18 1.44596 18 1.7874C18 2.12883 17.8644 2.45629 17.6229 2.69772L10.8208 9.50054L17.6208 16.3023Z"
      fill="#F16D6D"
    />
    <path
      id="Vector_2"
      d="M17.6208 16.3023C17.8622 16.5437 17.9979 16.8712 17.9979 17.2126C17.9979 17.554 17.8622 17.8815 17.6208 18.1229C17.3793 18.3644 17.0518 18.5 16.7104 18.5C16.3689 18.5 16.0415 18.3644 15.8 18.1229L9 11.3212L2.19785 18.1208C1.9564 18.3622 1.62893 18.4979 1.28747 18.4979C0.946014 18.4979 0.61854 18.3622 0.377092 18.1208C0.135644 17.8794 3.59785e-09 17.5519 0 17.2105C-3.59785e-09 16.869 0.135644 16.5416 0.377092 16.3001L7.17924 9.50054L0.379234 2.69879C0.137786 2.45736 0.00214212 2.1299 0.00214212 1.78847C0.00214212 1.44703 0.137786 1.11957 0.379234 0.87814C0.620682 0.636707 0.948155 0.501071 1.28961 0.501071C1.63107 0.501071 1.95855 0.636707 2.2 0.87814L9 7.67988L15.8021 0.877069C16.0436 0.635636 16.3711 0.5 16.7125 0.5C17.054 0.5 17.3815 0.635636 17.6229 0.877069C17.8644 1.1185 18 1.44596 18 1.7874C18 2.12883 17.8644 2.45629 17.6229 2.69772L10.8208 9.50054L17.6208 16.3023Z"
      fill="url(#paint0_linear_2420_9493)"
    />
  </g>
  <defs>
    <linearGradient
      id="paint0_linear_2420_9493"
      x1="9"
      y1="0.5"
      x2="9"
      y2="18.5"
      gradientUnits="userSpaceOnUse"
    >
      <stop stop-color="#FFC5C5" />
      <stop offset="0.495" stop-color="#F16D6D" stop-opacity="0" />
      <stop offset="1" stop-color="#FFC5C5" />
    </linearGradient>
  </defs>
</svg>
