<svg
  width="41"
  height="36"
  viewBox="0 0 41 36"
  fill="none"
  xmlns="http://www.w3.org/2000/svg"
>
  <g id="monthly_rental_price">
    <path
      id="Rectangle 477"
      d="M40.2578 21.6562L15.2548 7.13789L1.82502 12.2006L26.7021 26.7945L40.2578 21.6562Z"
      fill="#5A8E77"
    />
    <path
      id="Rectangle 478"
      d="M26.8398 26.6743L1.82802 12.1973V20.4698L26.8398 35.989V26.6743Z"
      fill="url(#paint0_linear_3852_14610)"
    />
    <path
      id="Rectangle 479"
      d="M40.2578 21.6562L26.8368 26.6667V36.0007L40.2578 30.1969V21.6562Z"
      fill="url(#paint1_linear_3852_14610)"
    />
    <path
      id="Rectangle 480"
      d="M40.2121 20.9167C40.2121 20.9167 28.1683 15.0711 21.207 10.1367C16.4363 6.75517 14.5306 5.00463 14.5306 5.00463L0.666207 9.11237C0.666207 9.11237 5.0109 12.2922 7.85382 14.2454C15.0555 19.1933 26.8589 26.0526 26.8589 26.0526L40.2121 20.9167Z"
      fill="url(#paint2_linear_3852_14610)"
    />
    <path
      id="Rectangle 483"
      d="M30.3594 15.751L24.2004 12.1519L10.3891 17.4972L17.0817 21.4574L30.3594 15.751Z"
      fill="#5A8E77"
    />
    <path
      id="Rectangle 484"
      d="M17.3828 20.855L11.5874 17.0801V26.5105L17.3828 30.1269V20.855Z"
      fill="#5A8E77"
    />
    <path
      id="Rectangle 481"
      d="M17.082 20.9732L10.3715 17.0801V25.8598L17.082 30.0613V20.9732Z"
      fill="#EBEBEB"
    />
    <path
      id="Rectangle 482"
      d="M30.2539 15.4922L24.0949 11.8931L10.3034 17.1831L16.996 21.1433L30.2539 15.4922Z"
      fill="white"
    />
  </g>
  <defs>
    <linearGradient
      id="paint0_linear_3852_14610"
      x1="26.8398"
      y1="16.1626"
      x2="17.0791"
      y2="31.7187"
      gradientUnits="userSpaceOnUse"
    >
      <stop stop-color="#5F8E79" />
      <stop offset="0.89" stop-color="#7BBDA0" />
    </linearGradient>
    <linearGradient
      id="paint1_linear_3852_14610"
      x1="33.5473"
      y1="21.6562"
      x2="33.5473"
      y2="36.0007"
      gradientUnits="userSpaceOnUse"
    >
      <stop stop-color="#436959" />
      <stop offset="1" stop-color="#639881" />
    </linearGradient>
    <linearGradient
      id="paint2_linear_3852_14610"
      x1="44.6833"
      y1="11.8139"
      x2="4.11029"
      y2="22.0855"
      gradientUnits="userSpaceOnUse"
    >
      <stop stop-color="#58967B" />
      <stop offset="0.625" stop-color="#96E1C0" />
      <stop offset="1" stop-color="#C5EFDD" />
    </linearGradient>
  </defs>
</svg>
