<svg width="11" height="20" viewBox="0 0 11 20" fill="none" xmlns="http://www.w3.org/2000/svg">
<path d="M1.41829 0.237078L10.7445 9.39693C10.9083 9.55782 11 9.7736 11 9.99828C11 10.223 10.9083 10.4387 10.7445 10.5996L1.41829 19.7629C1.34199 19.838 1.25076 19.8976 1.14999 19.9383C1.04922 19.979 0.940951 20 0.831574 20C0.722198 20 0.613927 19.979 0.513158 19.9383C0.412388 19.8976 0.321161 19.838 0.24486 19.7629C0.0878823 19.6091 0 19.4025 0 19.1874C0 18.9723 0.0878823 18.7658 0.24486 18.6119L9.01498 9.99828L0.24486 1.38637C0.0884209 1.23258 0.000878334 1.02639 0.000878334 0.811722C0.000878334 0.597052 0.0884209 0.390865 0.24486 0.237078C0.321161 0.162049 0.412388 0.102416 0.513158 0.061697C0.613927 0.0209784 0.722198 0 0.831574 0C0.940951 0 1.04922 0.0209784 1.14999 0.061697C1.25076 0.102416 1.34199 0.162049 1.41829 0.237078Z" fill="#966E5D"/>
</svg>
