<svg
  width="100"
  height="72"
  viewBox="0 0 100 72"
  fill="none"
  xmlns="http://www.w3.org/2000/svg"
>
  <g id="none-pet-lover">
    <g id="dog">
      <rect
        id="Rectangle 388"
        x="57"
        y="41"
        width="31"
        height="29"
        rx="14.5"
        fill="#E1BE96"
      />
      <rect
        id="Rectangle 392"
        x="57"
        y="41"
        width="31"
        height="29"
        rx="14.5"
        fill="url(#paint0_linear_1059_11986)"
      />
      <rect
        id="Rectangle 389"
        width="15.2516"
        height="9.80462"
        rx="4.5"
        transform="matrix(0.754878 -0.655865 0.754878 0.655865 50 47.0029)"
        fill="#E1BE96"
      />
      <rect
        id="Rectangle 394"
        width="15.2516"
        height="9.80462"
        rx="4.5"
        transform="matrix(0.754878 -0.655865 0.754878 0.655865 50 47.0029)"
        fill="url(#paint1_linear_1059_11986)"
      />
      <rect
        id="Rectangle 390"
        width="15.2516"
        height="9.80462"
        rx="4.5"
        transform="matrix(0.754878 0.655865 -0.754878 0.655865 84.8462 38)"
        fill="#E1BE96"
      />
      <rect
        id="Rectangle 393"
        width="15.2516"
        height="9.80462"
        rx="4.5"
        transform="matrix(0.754878 0.655865 -0.754878 0.655865 84.8462 38)"
        fill="url(#paint2_linear_1059_11986)"
      />
      <circle id="Ellipse 89" cx="65.5" cy="55.5" r="1.5" fill="#643927" />
      <circle id="Ellipse 90" cx="76.5" cy="55.5" r="1.5" fill="#643927" />
      <ellipse
        id="Ellipse 92"
        cx="71"
        cy="65.5"
        rx="7"
        ry="5.5"
        fill="#FDF7F1"
      />
      <ellipse
        id="Ellipse 93"
        cx="71"
        cy="65.5"
        rx="7"
        ry="5.5"
        fill="url(#paint3_linear_1059_11986)"
      />
      <circle id="Ellipse 91" cx="70" cy="64" r="2" fill="#643927" />
    </g>
    <g id="cat">
      <path
        id="Polygon 11"
        d="M44.1421 43.9497L41.5344 55.1306L32.9612 46.5574L44.1421 43.9497Z"
        fill="#D3D3D3"
      />
      <path
        id="Polygon 13"
        d="M44.1421 43.9497L41.5344 55.1306L32.9612 46.5574L44.1421 43.9497Z"
        fill="url(#paint4_linear_1059_11986)"
      />
      <rect
        id="Rectangle 391"
        x="11"
        y="46"
        width="32"
        height="24"
        rx="12"
        fill="#D3D3D3"
      />
      <rect
        id="Rectangle 395"
        x="11"
        y="46"
        width="32"
        height="24"
        rx="12"
        fill="url(#paint5_linear_1059_11986)"
      />
      <circle id="Ellipse 86" cx="23.5" cy="58.5" r="1.5" fill="#643927" />
      <circle id="Ellipse 87" cx="34.5" cy="58.5" r="1.5" fill="#643927" />
      <g id="Group 703">
        <circle id="Ellipse 93_2" cx="27.5" cy="63.5" r="2.5" fill="#FFFAFA" />
        <circle id="Ellipse 94" cx="31.5" cy="63.5" r="2.5" fill="#FFFAFA" />
      </g>
      <g id="Group 705">
        <circle
          id="Ellipse 93_3"
          cx="27.5"
          cy="63.5"
          r="2.5"
          fill="url(#paint6_linear_1059_11986)"
        />
        <circle
          id="Ellipse 94_2"
          cx="31.5"
          cy="63.5"
          r="2.5"
          fill="url(#paint7_linear_1059_11986)"
        />
      </g>
      <circle id="Ellipse 88" cx="29.5" cy="61.5" r="1.5" fill="#643927" />
      <path
        id="Polygon 10"
        d="M8.94975 44.9497L20.1306 47.5574L11.5574 56.1306L8.94975 44.9497Z"
        fill="#D3D3D3"
      />
      <path
        id="Polygon 12"
        d="M8.94975 44.9497L20.1306 47.5574L11.5574 56.1306L8.94975 44.9497Z"
        fill="url(#paint8_linear_1059_11986)"
      />
    </g>
    <g id="no">
      <path
        id="Vector"
        d="M63.4312 24.7034C63.7933 25.0656 63.9968 25.5567 63.9968 26.0689C63.9968 26.5811 63.7933 27.0722 63.4312 27.4344C63.069 27.7965 62.5778 28 62.0656 28C61.5534 28 61.0622 27.7965 60.7 27.4344L50.5 17.2318L40.2968 27.4312C39.9346 27.7933 39.4434 27.9968 38.9312 27.9968C38.419 27.9968 37.9278 27.7933 37.5656 27.4312C37.2035 27.069 37 26.5778 37 26.0657C37 25.5535 37.2035 25.0624 37.5656 24.7002L47.7689 14.5008L37.5689 4.29819C37.2067 3.93604 37.0032 3.44486 37.0032 2.9327C37.0032 2.42054 37.2067 1.92936 37.5689 1.56721C37.931 1.20506 38.4222 1.00161 38.9344 1.00161C39.4466 1.00161 39.9378 1.20506 40.3 1.56721L50.5 11.7698L60.7032 1.5656C61.0654 1.20345 61.5566 1 62.0688 1C62.581 1 63.0722 1.20345 63.4344 1.5656C63.7965 1.92775 64 2.41894 64 2.93109C64 3.44325 63.7965 3.93443 63.4344 4.29658L53.2311 14.5008L63.4312 24.7034Z"
        fill="#F16D6D"
      />
      <path
        id="Vector_2"
        d="M63.4312 24.7034C63.7933 25.0656 63.9968 25.5567 63.9968 26.0689C63.9968 26.5811 63.7933 27.0722 63.4312 27.4344C63.069 27.7965 62.5778 28 62.0656 28C61.5534 28 61.0622 27.7965 60.7 27.4344L50.5 17.2318L40.2968 27.4312C39.9346 27.7933 39.4434 27.9968 38.9312 27.9968C38.419 27.9968 37.9278 27.7933 37.5656 27.4312C37.2035 27.069 37 26.5778 37 26.0657C37 25.5535 37.2035 25.0624 37.5656 24.7002L47.7689 14.5008L37.5689 4.29819C37.2067 3.93604 37.0032 3.44486 37.0032 2.9327C37.0032 2.42054 37.2067 1.92936 37.5689 1.56721C37.931 1.20506 38.4222 1.00161 38.9344 1.00161C39.4466 1.00161 39.9378 1.20506 40.3 1.56721L50.5 11.7698L60.7032 1.5656C61.0654 1.20345 61.5566 1 62.0688 1C62.581 1 63.0722 1.20345 63.4344 1.5656C63.7965 1.92775 64 2.41894 64 2.93109C64 3.44325 63.7965 3.93443 63.4344 4.29658L53.2311 14.5008L63.4312 24.7034Z"
        fill="url(#paint9_linear_1059_11986)"
      />
    </g>
  </g>
  <defs>
    <linearGradient
      id="paint0_linear_1059_11986"
      x1="72.5"
      y1="41"
      x2="72.5"
      y2="70"
      gradientUnits="userSpaceOnUse"
    >
      <stop stop-color="#FFDEB7" />
      <stop offset="0.71" stop-color="#E1BE96" stop-opacity="0" />
      <stop offset="1" stop-color="#E0A174" />
    </linearGradient>
    <linearGradient
      id="paint1_linear_1059_11986"
      x1="13.7682"
      y1="0.803725"
      x2="0.256846"
      y2="1.19291"
      gradientUnits="userSpaceOnUse"
    >
      <stop stop-color="#FFE1BF" />
      <stop offset="0.715" stop-color="#E1BE96" stop-opacity="0" />
      <stop offset="1" stop-color="#E0A174" stop-opacity="0.8" />
    </linearGradient>
    <linearGradient
      id="paint2_linear_1059_11986"
      x1="0.401855"
      y1="4.17226"
      x2="14.5238"
      y2="1.21826"
      gradientUnits="userSpaceOnUse"
    >
      <stop stop-color="#FFE1BF" />
      <stop offset="0.605" stop-color="#E1BE96" stop-opacity="0" />
      <stop offset="1" stop-color="#E0A174" />
      <stop offset="1" stop-color="#E0A174" />
    </linearGradient>
    <linearGradient
      id="paint3_linear_1059_11986"
      x1="71"
      y1="60"
      x2="71"
      y2="71"
      gradientUnits="userSpaceOnUse"
    >
      <stop stop-color="#FDF7F1" stop-opacity="0" />
      <stop offset="0.95" stop-color="#EACFB7" />
    </linearGradient>
    <linearGradient
      id="paint4_linear_1059_11986"
      x1="42"
      y1="43.5"
      x2="40"
      y2="53"
      gradientUnits="userSpaceOnUse"
    >
      <stop stop-color="#FFF3E1" />
      <stop offset="0.565" stop-color="#D3D3D3" stop-opacity="0" />
      <stop offset="1" stop-color="#B6B6B6" />
    </linearGradient>
    <linearGradient
      id="paint5_linear_1059_11986"
      x1="27"
      y1="45"
      x2="27"
      y2="70"
      gradientUnits="userSpaceOnUse"
    >
      <stop stop-color="#F3E7D6" />
      <stop offset="0.265" stop-color="#D3D3D3" />
      <stop offset="1" stop-color="#B4B4B4" />
    </linearGradient>
    <linearGradient
      id="paint6_linear_1059_11986"
      x1="27.5"
      y1="61"
      x2="27.5"
      y2="66"
      gradientUnits="userSpaceOnUse"
    >
      <stop offset="0.375" stop-color="#FFFAFA" stop-opacity="0" />
      <stop offset="1" stop-color="#DCD2D2" />
    </linearGradient>
    <linearGradient
      id="paint7_linear_1059_11986"
      x1="31.5"
      y1="61"
      x2="31.5"
      y2="66"
      gradientUnits="userSpaceOnUse"
    >
      <stop offset="0.375" stop-color="#FFFAFA" stop-opacity="0" />
      <stop offset="1" stop-color="#DCD2D2" />
    </linearGradient>
    <linearGradient
      id="paint8_linear_1059_11986"
      x1="12"
      y1="42.5"
      x2="17"
      y2="55"
      gradientUnits="userSpaceOnUse"
    >
      <stop stop-color="#FEF3E1" />
      <stop offset="0.52" stop-color="#D3D3D3" stop-opacity="0" />
      <stop offset="1" stop-color="#C2C2C2" />
    </linearGradient>
    <linearGradient
      id="paint9_linear_1059_11986"
      x1="50.5"
      y1="1"
      x2="50.5"
      y2="28"
      gradientUnits="userSpaceOnUse"
    >
      <stop stop-color="#FFC5C5" />
      <stop offset="0.495" stop-color="#F16D6D" stop-opacity="0" />
      <stop offset="1" stop-color="#FFC5C5" />
    </linearGradient>
  </defs>
</svg>
