<svg xmlns="http://www.w3.org/2000/svg" width="76" height="68" fill="none">
  <rect width="52" height="14" x="12" y="42" fill="#FFFBF9" rx="3" />
  <rect width="52" height="14" x="12" y="42" fill="url(#a)" rx="3" />
  <path fill="#F0D6A5" d="M48 42h13a3 3 0 0 1 3 3v8a3 3 0 0 1-3 3H48V42Z" />
  <path fill="url(#b)" d="M48 42h13a3 3 0 0 1 3 3v8a3 3 0 0 1-3 3H48V42Z" />
  <path
    fill="#F16D6D"
    d="M51.431 28.703a1.931 1.931 0 0 1-2.731 2.731L38.5 21.232l-10.203 10.2a1.932 1.932 0 0 1-2.731-2.732l10.203-10.2-10.2-10.202a1.931 1.931 0 1 1 2.731-2.73L38.5 15.77 48.703 5.566a1.931 1.931 0 0 1 2.731 2.73L41.231 18.502l10.2 10.202Z"
  />
  <path
    fill="url(#c)"
    d="M51.431 28.703a1.931 1.931 0 0 1-2.731 2.731L38.5 21.232l-10.203 10.2a1.932 1.932 0 0 1-2.731-2.732l10.203-10.2-10.2-10.202a1.931 1.931 0 1 1 2.731-2.73L38.5 15.77 48.703 5.566a1.931 1.931 0 0 1 2.731 2.73L41.231 18.502l10.2 10.202Z"
  />
  <defs>
    <linearGradient
      id="a"
      x1="27"
      x2="27"
      y1="42"
      y2="66"
      gradientUnits="userSpaceOnUse"
    >
      <stop stop-color="#FFFBF9" stop-opacity="0" />
      <stop offset=".33" stop-color="#DECCBF" />
      <stop offset=".73" stop-color="#DBD1CA" stop-opacity=".472" />
    </linearGradient>
    <linearGradient
      id="b"
      x1="56"
      x2="56"
      y1="42"
      y2="56"
      gradientUnits="userSpaceOnUse"
    >
      <stop offset=".27" stop-color="#F0D6A5" />
      <stop offset=".885" stop-color="#D49928" stop-opacity="0" />
      <stop offset="1" stop-color="#EDAB2A" stop-opacity="0" />
    </linearGradient>
    <linearGradient
      id="c"
      x1="38.5"
      x2="38.5"
      y1="5"
      y2="32"
      gradientUnits="userSpaceOnUse"
    >
      <stop stop-color="#FFC5C5" />
      <stop offset=".495" stop-color="#F16D6D" stop-opacity="0" />
      <stop offset="1" stop-color="#FFC5C5" />
    </linearGradient>
  </defs>
</svg>
