<svg
  width="76"
  height="68"
  viewBox="0 0 76 68"
  fill="none"
  xmlns="http://www.w3.org/2000/svg"
>
  <g id="none-smoke">
    <g id="non-smoke">
      <g id="cigarette">
        <rect
          id="Rectangle 320"
          x="12"
          y="42"
          width="52"
          height="14"
          rx="3"
          fill="#FFFBF9"
        />
        <rect
          id="Rectangle 322"
          x="12"
          y="42"
          width="52"
          height="14"
          rx="3"
          fill="url(#paint0_linear_1059_12096)"
        />
        <path
          id="Rectangle 321"
          d="M48 42H61C62.6569 42 64 43.3431 64 45V53C64 54.6569 62.6569 56 61 56H48V42Z"
          fill="#F0D6A5"
        />
        <path
          id="Rectangle 323"
          d="M48 42H61C62.6569 42 64 43.3431 64 45V53C64 54.6569 62.6569 56 61 56H48V42Z"
          fill="url(#paint1_linear_1059_12096)"
        />
      </g>
      <g id="Exit">
        <path
          id="Vector"
          d="M51.4312 28.7034C51.7933 29.0656 51.9968 29.5567 51.9968 30.0689C51.9968 30.5811 51.7933 31.0722 51.4312 31.4344C51.069 31.7965 50.5778 32 50.0656 32C49.5534 32 49.0622 31.7965 48.7 31.4344L38.5 21.2318L28.2968 31.4312C27.9346 31.7933 27.4434 31.9968 26.9312 31.9968C26.419 31.9968 25.9278 31.7933 25.5656 31.4312C25.2035 31.069 25 30.5778 25 30.0657C25 29.5535 25.2035 29.0624 25.5656 28.7002L35.7689 18.5008L25.5689 8.29819C25.2067 7.93604 25.0032 7.44486 25.0032 6.9327C25.0032 6.42054 25.2067 5.92936 25.5689 5.56721C25.931 5.20506 26.4222 5.00161 26.9344 5.00161C27.4466 5.00161 27.9378 5.20506 28.3 5.56721L38.5 15.7698L48.7032 5.5656C49.0654 5.20345 49.5566 5 50.0688 5C50.581 5 51.0722 5.20345 51.4344 5.5656C51.7965 5.92775 52 6.41894 52 6.93109C52 7.44325 51.7965 7.93443 51.4344 8.29658L41.2311 18.5008L51.4312 28.7034Z"
          fill="#F16D6D"
        />
        <path
          id="Vector_2"
          d="M51.4312 28.7034C51.7933 29.0656 51.9968 29.5567 51.9968 30.0689C51.9968 30.5811 51.7933 31.0722 51.4312 31.4344C51.069 31.7965 50.5778 32 50.0656 32C49.5534 32 49.0622 31.7965 48.7 31.4344L38.5 21.2318L28.2968 31.4312C27.9346 31.7933 27.4434 31.9968 26.9312 31.9968C26.419 31.9968 25.9278 31.7933 25.5656 31.4312C25.2035 31.069 25 30.5778 25 30.0657C25 29.5535 25.2035 29.0624 25.5656 28.7002L35.7689 18.5008L25.5689 8.29819C25.2067 7.93604 25.0032 7.44486 25.0032 6.9327C25.0032 6.42054 25.2067 5.92936 25.5689 5.56721C25.931 5.20506 26.4222 5.00161 26.9344 5.00161C27.4466 5.00161 27.9378 5.20506 28.3 5.56721L38.5 15.7698L48.7032 5.5656C49.0654 5.20345 49.5566 5 50.0688 5C50.581 5 51.0722 5.20345 51.4344 5.5656C51.7965 5.92775 52 6.41894 52 6.93109C52 7.44325 51.7965 7.93443 51.4344 8.29658L41.2311 18.5008L51.4312 28.7034Z"
          fill="url(#paint2_linear_1059_12096)"
        />
      </g>
    </g>
  </g>
  <defs>
    <linearGradient
      id="paint0_linear_1059_12096"
      x1="27"
      y1="42"
      x2="27"
      y2="66"
      gradientUnits="userSpaceOnUse"
    >
      <stop stop-color="#FFFBF9" stop-opacity="0" />
      <stop offset="0.33" stop-color="#DECCBF" />
      <stop offset="0.73" stop-color="#DBD1CA" stop-opacity="0.472222" />
    </linearGradient>
    <linearGradient
      id="paint1_linear_1059_12096"
      x1="56"
      y1="42"
      x2="56"
      y2="56"
      gradientUnits="userSpaceOnUse"
    >
      <stop offset="0.27" stop-color="#F0D6A5" />
      <stop offset="0.885" stop-color="#D49928" stop-opacity="0" />
      <stop offset="1" stop-color="#EDAB2A" stop-opacity="0" />
    </linearGradient>
    <linearGradient
      id="paint2_linear_1059_12096"
      x1="38.5"
      y1="5"
      x2="38.5"
      y2="32"
      gradientUnits="userSpaceOnUse"
    >
      <stop stop-color="#FFC5C5" />
      <stop offset="0.495" stop-color="#F16D6D" stop-opacity="0" />
      <stop offset="1" stop-color="#FFC5C5" />
    </linearGradient>
  </defs>
</svg>
