<svg width="18" height="17" viewBox="0 0 18 17" fill="none" xmlns="http://www.w3.org/2000/svg">
<g id="Group 712">
<path id="Vector" d="M1.67344 9.8773L8.02617 15.7851C8.28984 16.0303 8.63789 16.1668 9 16.1668C9.36211 16.1668 9.71016 16.0303 9.97383 15.7851L16.3266 9.8773C17.3953 8.88624 18 7.49596 18 6.04264V5.83953C18 3.39165 16.2246 1.30448 13.8023 0.901753C12.1992 0.635604 10.568 1.1574 9.42188 2.29904L9 2.71927L8.57812 2.29904C7.43203 1.1574 5.80078 0.635604 4.19766 0.901753C1.77539 1.30448 0 3.39165 0 5.83953V6.04264C0 7.49596 0.604687 8.88624 1.67344 9.8773Z" fill="#FEB8B8"/>
<path id="Vector_2" d="M1.67344 9.8773L8.02617 15.7851C8.28984 16.0303 8.63789 16.1668 9 16.1668C9.36211 16.1668 9.71016 16.0303 9.97383 15.7851L16.3266 9.8773C17.3953 8.88624 18 7.49596 18 6.04264V5.83953C18 3.39165 16.2246 1.30448 13.8023 0.901753C12.1992 0.635604 10.568 1.1574 9.42188 2.29904L9 2.71927L8.57812 2.29904C7.43203 1.1574 5.80078 0.635604 4.19766 0.901753C1.77539 1.30448 0 3.39165 0 5.83953V6.04264C0 7.49596 0.604687 8.88624 1.67344 9.8773Z" fill="url(#paint0_linear_3123_9583)"/>
</g>
<defs>
<linearGradient id="paint0_linear_3123_9583" x1="9" y1="0.833496" x2="9" y2="16.1668" gradientUnits="userSpaceOnUse">
<stop offset="0.085" stop-color="#FFD9D9"/>
<stop offset="0.39" stop-color="#FEB8B8" stop-opacity="0"/>
<stop offset="1" stop-color="#FFA1A1"/>
</linearGradient>
</defs>
</svg>
