<svg
  width="24"
  height="25"
  viewBox="0 0 24 25"
  fill="none"
  xmlns="http://www.w3.org/2000/svg"
>
  <g id="ph:gender-intersex">
    <path
      id="Vector"
      d="M19.5009 2.75H15.7509C15.552 2.75 15.3613 2.82902 15.2206 2.96967C15.0799 3.11032 15.0009 3.30109 15.0009 3.5C15.0009 3.69891 15.0799 3.88968 15.2206 4.03033C15.3613 4.17098 15.552 4.25 15.7509 4.25H17.6906L15.3328 6.60781C14.6405 5.96262 13.8054 5.49033 12.8956 5.22954C11.9859 4.96875 11.0274 4.92684 10.0984 5.10724C9.16943 5.28764 8.29628 5.68523 7.55029 6.26754C6.80429 6.84985 6.20662 7.60036 5.80608 8.45777C5.40555 9.31519 5.21351 10.2552 5.24565 11.201C5.27779 12.1468 5.5332 13.0716 5.99102 13.8998C6.44884 14.7281 7.09609 15.4363 7.87989 15.9666C8.66369 16.4969 9.56182 16.8343 10.5009 16.9513V18.5H8.25093C8.05202 18.5 7.86125 18.579 7.7206 18.7197C7.57995 18.8603 7.50093 19.0511 7.50093 19.25C7.50093 19.4489 7.57995 19.6397 7.7206 19.7803C7.86125 19.921 8.05202 20 8.25093 20H10.5009V22.25C10.5009 22.4489 10.5799 22.6397 10.7206 22.7803C10.8613 22.921 11.052 23 11.2509 23C11.4498 23 11.6406 22.921 11.7813 22.7803C11.9219 22.6397 12.0009 22.4489 12.0009 22.25V20H14.2509C14.4498 20 14.6406 19.921 14.7813 19.7803C14.9219 19.6397 15.0009 19.4489 15.0009 19.25C15.0009 19.0511 14.9219 18.8603 14.7813 18.7197C14.6406 18.579 14.4498 18.5 14.2509 18.5H12.0009V16.9513C13.0062 16.8257 13.9633 16.4473 14.7826 15.8514C15.602 15.2555 16.2569 14.4616 16.6862 13.544C17.1154 12.6263 17.305 11.6147 17.2372 10.6039C17.1694 9.59304 16.8464 8.61588 16.2984 7.76375L18.7509 5.31031V7.25C18.7509 7.44891 18.8299 7.63968 18.9706 7.78033C19.1113 7.92098 19.302 8 19.5009 8C19.6998 8 19.8906 7.92098 20.0313 7.78033C20.1719 7.63968 20.2509 7.44891 20.2509 7.25V3.5C20.2509 3.30109 20.1719 3.11032 20.0313 2.96967C19.8906 2.82902 19.6998 2.75 19.5009 2.75ZM11.2509 15.5C10.3609 15.5 9.49088 15.2361 8.75086 14.7416C8.01084 14.2471 7.43407 13.5443 7.09347 12.7221C6.75288 11.8998 6.66376 10.995 6.8374 10.1221C7.01103 9.24918 7.43961 8.44736 8.06895 7.81802C8.69829 7.18868 9.50011 6.7601 10.373 6.58647C11.2459 6.41283 12.1507 6.50195 12.973 6.84254C13.7953 7.18314 14.4981 7.75991 14.9925 8.49993C15.487 9.23995 15.7509 10.11 15.7509 11C15.7497 12.1931 15.2752 13.337 14.4315 14.1806C13.5879 15.0243 12.444 15.4988 11.2509 15.5Z"
      fill="url(#paint0_linear_2420_9478)"
    />
  </g>
  <defs>
    <linearGradient
      id="paint0_linear_2420_9478"
      x1="12.7466"
      y1="2.75"
      x2="12.7466"
      y2="23"
      gradientUnits="userSpaceOnUse"
    >
      <stop stop-color="#AEAEAE" />
      <stop offset="1" stop-color="#4F4F4F" />
    </linearGradient>
  </defs>
</svg>
