<svg width="11" height="20" viewBox="0 0 11 20" fill="none" xmlns="http://www.w3.org/2000/svg">
<path d="M9.58171 0.237078L0.255475 9.39693C0.0916736 9.55782 0 9.7736 0 9.99828C0 10.223 0.0916736 10.4387 0.255475 10.5996L9.58171 19.7629C9.65801 19.838 9.74924 19.8976 9.85001 19.9383C9.95078 19.979 10.059 20 10.1684 20C10.2778 20 10.3861 19.979 10.4868 19.9383C10.5876 19.8976 10.6788 19.838 10.7551 19.7629C10.9121 19.6091 11 19.4025 11 19.1874C11 18.9723 10.9121 18.7658 10.7551 18.6119L1.98502 9.99828L10.7551 1.38637C10.9116 1.23258 10.9991 1.02639 10.9991 0.811722C10.9991 0.597052 10.9116 0.390865 10.7551 0.237078C10.6788 0.162049 10.5876 0.102416 10.4868 0.061697C10.3861 0.0209784 10.2778 0 10.1684 0C10.059 0 9.95078 0.0209784 9.85001 0.061697C9.74924 0.102416 9.65801 0.162049 9.58171 0.237078Z" fill="#966E5D"/>
</svg>
