<svg width="16" height="18" viewBox="0 0 16 18" fill="none" xmlns="http://www.w3.org/2000/svg">
<path d="M12.2783 5.42217C11.6658 4.8076 10.9378 4.32019 10.1362 3.98797C9.33457 3.65574 8.47521 3.48527 7.6075 3.48633C5.85515 3.48655 4.17463 4.18277 2.93554 5.42187C1.69644 6.66097 1.00022 8.34148 1 10.0938C1.00022 11.847 1.69617 13.5283 2.93503 14.7687C4.17389 16.0092 5.85438 16.7072 7.6075 16.7097C9.36076 16.7072 11.0414 16.0091 12.2803 14.7685C13.5191 13.5278 14.215 11.8463 14.215 10.093" stroke="#643927" stroke-width="2" stroke-miterlimit="10" stroke-linecap="round"/>
<path d="M11.6744 1.29297L12.4661 4.50797C12.5364 4.79295 12.4907 5.09416 12.3392 5.34553C12.1876 5.5969 11.9426 5.77789 11.6578 5.8488L8.43359 6.6388" stroke="#643927" stroke-width="2" stroke-linecap="round" stroke-linejoin="round"/>
</svg>
