<svg
  width="50"
  height="23"
  viewBox="0 0 50 23"
  fill="none"
  xmlns="http://www.w3.org/2000/svg"
>
  <g id="two-people">
    <g id="Group 9247">
      <circle
        id="Ellipse 108"
        cx="11.5"
        cy="11.5"
        r="11.5"
        fill="url(#paint0_linear_3856_14656)"
      />
      <g id="Group 9243">
        <path
          id="Vector 14 (Stroke)"
          fill-rule="evenodd"
          clip-rule="evenodd"
          d="M11.3816 13.5014C11.6994 13.4799 11.9749 13.7138 11.9969 14.0237L11.4213 14.0625C11.9969 14.0237 11.9969 14.024 11.9969 14.0243L11.997 14.025L11.9971 14.0264L11.9973 14.0298L11.9978 14.0388C11.9982 14.0456 11.9986 14.0543 11.9989 14.0648C11.9996 14.0856 12.0002 14.1134 11.9999 14.1471C11.9994 14.2145 11.9958 14.307 11.9835 14.4164C11.9594 14.6324 11.9002 14.9309 11.754 15.2373C11.606 15.5474 11.3655 15.8717 10.9815 16.1157C10.5965 16.3605 10.1057 16.5 9.49913 16.5C8.91757 16.5 8.44305 16.3566 8.06773 16.1125C7.69604 15.8708 7.45547 15.5526 7.30114 15.2515C7.14793 14.9526 7.0742 14.6605 7.03788 14.4479C7.01949 14.3403 7.01007 14.2494 7.00522 14.1831C7.00279 14.1499 7.00149 14.1227 7.00079 14.1023C7.00044 14.0921 7.00024 14.0836 7.00013 14.077L7.00003 14.0683L7.00001 14.0651L7 14.0637L7 14.0631C7 14.0628 7 14.0625 7.57692 14.0625H7C7 13.7519 7.2583 13.5 7.57692 13.5C7.89435 13.5 8.15191 13.75 8.15384 14.059L8.154 14.0648C8.15424 14.0719 8.15481 14.085 8.15614 14.103C8.1588 14.1393 8.16439 14.1949 8.17604 14.2631C8.19978 14.402 8.24619 14.5787 8.33326 14.7485C8.4192 14.9162 8.53905 15.0667 8.70797 15.1766C8.87328 15.2841 9.11958 15.375 9.49913 15.375C9.92013 15.375 10.1834 15.2801 10.3514 15.1733C10.5205 15.0658 10.6321 14.9214 10.7078 14.7627C10.7853 14.6004 10.8213 14.4301 10.8365 14.2945C10.8439 14.2282 10.8459 14.1742 10.8461 14.139C10.8463 14.1215 10.846 14.109 10.8457 14.1024L10.8455 14.0973C10.8259 13.7891 11.0651 13.5227 11.3816 13.5014Z"
          fill="#643927"
        />
        <path
          id="Vector"
          d="M12.7278 11.2759C13.3562 11.2759 13.8657 10.7664 13.8657 10.1379C13.8657 9.50947 13.3562 9 12.7278 9C12.0993 9 11.5898 9.50947 11.5898 10.1379C11.5898 10.7664 12.0993 11.2759 12.7278 11.2759Z"
          fill="#643927"
        />
        <path
          id="Vector_2"
          d="M5.13793 11.2759C5.76639 11.2759 6.27586 10.7664 6.27586 10.1379C6.27586 9.50947 5.76639 9 5.13793 9C4.50947 9 4 9.50947 4 10.1379C4 10.7664 4.50947 11.2759 5.13793 11.2759Z"
          fill="#643927"
        />
      </g>
    </g>
    <g id="Group 9248">
      <circle
        id="Ellipse 108_2"
        cx="38.5"
        cy="11.5"
        r="11.5"
        fill="url(#paint1_linear_3856_14656)"
      />
      <g id="Group 9243_2">
        <path
          id="Vector 14 (Stroke)_2"
          fill-rule="evenodd"
          clip-rule="evenodd"
          d="M38.3816 13.5014C38.6994 13.4799 38.9749 13.7138 38.9969 14.0237L38.4213 14.0625C38.9969 14.0237 38.9969 14.024 38.9969 14.0243L38.997 14.025L38.9971 14.0264L38.9973 14.0298L38.9978 14.0388C38.9982 14.0456 38.9986 14.0543 38.9989 14.0648C38.9996 14.0856 39.0002 14.1134 38.9999 14.1471C38.9994 14.2145 38.9958 14.307 38.9835 14.4164C38.9594 14.6324 38.9002 14.9309 38.754 15.2373C38.606 15.5474 38.3655 15.8717 37.9815 16.1157C37.5965 16.3605 37.1057 16.5 36.4991 16.5C35.9176 16.5 35.4431 16.3566 35.0677 16.1125C34.696 15.8708 34.4555 15.5526 34.3011 15.2515C34.1479 14.9526 34.0742 14.6605 34.0379 14.4479C34.0195 14.3403 34.0101 14.2494 34.0052 14.1831C34.0028 14.1499 34.0015 14.1227 34.0008 14.1023C34.0004 14.0921 34.0002 14.0836 34.0001 14.077L34 14.0683L34 14.0651L34 14.0637L34 14.0631C34 14.0628 34 14.0625 34.5769 14.0625H34C34 13.7519 34.2583 13.5 34.5769 13.5C34.8944 13.5 35.1519 13.75 35.1538 14.059L35.154 14.0648C35.1542 14.0719 35.1548 14.085 35.1561 14.103C35.1588 14.1393 35.1644 14.1949 35.176 14.2631C35.1998 14.402 35.2462 14.5787 35.3333 14.7485C35.4192 14.9162 35.539 15.0667 35.708 15.1766C35.8733 15.2841 36.1196 15.375 36.4991 15.375C36.9201 15.375 37.1834 15.2801 37.3514 15.1733C37.5205 15.0658 37.6321 14.9214 37.7078 14.7627C37.7853 14.6004 37.8213 14.4301 37.8365 14.2945C37.8439 14.2282 37.8459 14.1742 37.8461 14.139C37.8463 14.1215 37.846 14.109 37.8457 14.1024L37.8455 14.0973C37.8259 13.7891 38.0651 13.5227 38.3816 13.5014Z"
          fill="#643927"
        />
        <path
          id="Vector_3"
          d="M39.7278 11.2759C40.3562 11.2759 40.8657 10.7664 40.8657 10.1379C40.8657 9.50947 40.3562 9 39.7278 9C39.0993 9 38.5898 9.50947 38.5898 10.1379C38.5898 10.7664 39.0993 11.2759 39.7278 11.2759Z"
          fill="#643927"
        />
        <path
          id="Vector_4"
          d="M32.1379 11.2759C32.7664 11.2759 33.2759 10.7664 33.2759 10.1379C33.2759 9.50947 32.7664 9 32.1379 9C31.5095 9 31 9.50947 31 10.1379C31 10.7664 31.5095 11.2759 32.1379 11.2759Z"
          fill="#643927"
        />
      </g>
    </g>
  </g>
  <defs>
    <linearGradient
      id="paint0_linear_3856_14656"
      x1="11.5"
      y1="0"
      x2="11.5"
      y2="23"
      gradientUnits="userSpaceOnUse"
    >
      <stop offset="0.305" stop-color="#FFEBEB" />
      <stop offset="1" stop-color="#FFBBBB" />
    </linearGradient>
    <linearGradient
      id="paint1_linear_3856_14656"
      x1="38.5"
      y1="0"
      x2="38.5"
      y2="23"
      gradientUnits="userSpaceOnUse"
    >
      <stop offset="0.305" stop-color="#FFEBEB" />
      <stop offset="1" stop-color="#FFBBBB" />
    </linearGradient>
  </defs>
</svg>
